<?xml version="1.0" encoding="utf-8"?>
<!-- Generator: Adobe Illustrator 27.0.0, SVG Export Plug-In . SVG Version: 6.00 Build 0)  -->
<svg version="1.1" id="Layer_1" xmlns="http://www.w3.org/2000/svg" xmlns:xlink="http://www.w3.org/1999/xlink" x="0px" y="0px"
	 viewBox="0 0 100 64" style="enable-background:new 0 0 100 64;" xml:space="preserve">
<style type="text/css">
	.st0{opacity:0.5;}
</style>
<path class="st0" d="M50,0C39,0,29.3,5.6,23.5,14.1C10.4,14.9,0,25.7,0,39c0,13.8,11.2,25,25,25h57c9.9,0,18-8.1,18-18
	c0-5.5-2.5-10.4-6.4-13.7c0.2-1.1,0.4-2.2,0.4-3.3c0-8.3-6.7-15-15-15c-0.8,0-1.6,0.1-2.4,0.2C70.8,5.7,61.1,0,50,0z M50,4
	c15.5,0,28,12.5,28,28c0,1.1,0.9,2,2,2c1.1,0,2-0.9,2-2c0,0,0,0,0-0.1c0-5-1.2-9.7-3.3-14c0.1,0,0.2,0,0.3,0c6.1,0,11,4.9,11,11
	c0,1-0.1,2-0.4,3c-0.2,0.3-0.2,0.5-0.3,0.8c-0.8,2.3-2.4,4.2-4.4,5.5c-0.9,0.6-1.3,1.8-0.7,2.7s1.8,1.3,2.7,0.7c0,0,0.1,0,0.1-0.1
	c2.1-1.3,3.8-3.2,5-5.3c2.4,2.5,3.9,5.9,3.9,9.7c0,7.8-6.2,14-14,14H25C13.4,60,4,50.6,4,39c0-10.3,7.3-18.8,17.1-20.6
	c-2,4.1-3.1,8.7-3.1,13.6c0,1.1,0.9,2,2,2c1.1,0,2-0.9,2-2c0,0,0,0,0-0.1C22,16.5,34.5,4,50,4z M50,8C36.8,8,26,18.8,26,32
	s10.8,24,24,24s24-10.8,24-24S63.2,8,50,8z M50,12c11.1,0,20,8.9,20,20s-8.9,20-20,20s-20-8.9-20-20S38.9,12,50,12z M43,20
	c-1.7,0-3,1.3-3,3v20c0,1.7,1.3,3,3,3c1.7,0,3-1.3,3-3c0,0,0-0.1,0-0.1v-5h7c4.9,0,9-4.1,9-9s-4.1-9-9-9H43z M46,26h7
	c1.7,0,3,1.3,3,3s-1.3,3-3,3h-7V26z"/>
</svg>
