<?xml version="1.0" encoding="utf-8"?>
<!-- Generator: Adobe Illustrator 27.0.0, SVG Export Plug-In . SVG Version: 6.00 Build 0)  -->
<svg version="1.1" id="Layer_1" xmlns="http://www.w3.org/2000/svg" xmlns:xlink="http://www.w3.org/1999/xlink" x="0px" y="0px"
	 viewBox="0 0 96.2 53.4" style="enable-background:new 0 0 96.2 53.4;" xml:space="preserve">
<style type="text/css">
	.st0{opacity:0.5;}
</style>
<g id="surface152634704" class="st0">
	<path d="M22.3,24.9c-7.9-3.9-10.7-4.4-16.9-4c-6.1,0.4-6.1,3.5-4.7,3.6s1.9,0.2,1.9,0.2L3,24l-1.8-0.8c0,0,7.7-2,17.4,2.7
		c9.6,4.7,12.1,10.7,9.4,13.7c-2.7,3-7.3,4.5-13.1,3.2c-0.1-4.1,0.1-7,0.1-7s5.4-0.2,6.7,0.8c1.4,1,0.2,1.6-0.7,1.9
		c1.3,0.8,2.3,1.1,3.2,0c0.9-1.1,1.9-5.8-9-5.5c-0.2-1.9,0.4-3.2-1.2-5.1c-1.6-1.9-1.6,5.2-1.6,5.2S8.4,33.6,5,36
		c-3.4,2.4,6.9,8.1,6.9,8.1s0.2,2.6,1.7,2.9c1.5,0.3,1.4-1.9,1.4-1.9s8.9,2.6,14.9-2.7C35.8,37.2,30.3,28.8,22.3,24.9z M12,42.1
		c0,0-3.4-1.4-5.3-3.1c-1.9-1.7-1.3-2-0.4-2.2c0.9-0.2,4.4-1.1,5.8-1.1L12,42.1z M33.7,33.6c0,0-0.5,5.8-0.3,9.3
		c0.1,1.5,2.5,1.8,2.5,0.3c0-1.5-0.1-7.4-0.3-8.6C35.4,33.4,34.3,32.4,33.7,33.6z M47.2,32.9c0,0-5.5-1.2-9.1,1.2
		c-1.8,1.2-1.3,3.4-0.3,3.5s6,0.3,7.2,1.1c1.2,0.8,1.5,1.4,0.2,2.2c-1.3,0.8-4.2,1.2-5.4,0.8s-1.6-2.5,0.6-1.4
		c2.2,1.1,6.1-0.2,3.5-1.1c-2.7-0.9-4.9-0.7-6.2,0.3c-1.4,1,0.5,3.1,2.1,3.8c1.6,0.7,4.6,0.9,6.3-0.2c1.8-1.1,2.7-5.3-0.2-5.9
		c-2.9-0.7-4.7-0.6-5.9-0.8c-1.3-0.2-0.7-0.7,1.4-0.9c2.1-0.2,3.6-0.3,5.4-0.6S48.6,33.2,47.2,32.9z M54.6,34.3c0.2,0.9,1,4.3,1,5.7
		c-1-1.5-2.6-4.5-4-5.8c-1.4-1.4-1.8-0.2-1.8-0.2s-1.4,5.1-1,8.3c0.4,3.3,2.1,1,2.2,0c0.1-1,0.3-4.3,0.3-5.2c0.9,2,2.3,4.3,3.4,5.4
		c1.1,1.1,2.2,0.4,2.6-0.6c0.4-1,1.7-6.3-1.4-9.9C52.8,28.4,54.4,33.5,54.6,34.3z M65.2,40.4c-1.1,0.1-4.3,0.6-4.3,0.6l0.7-2.1
		c0,0,2.1,0.1,3.8-0.1c1.7-0.2,0.5-2.1-0.1-2.1s-2.8,0-2.8,0l0.5-1.4c0,0,3.7-0.1,4.9-0.3c1.2-0.2-0.7-2.2-2.1-2.3s-4.4,0.3-6.3,0.7
		c-2,0.4,1.3,1.9,1.3,1.9s-0.3,1-0.7,1.7c-1.2,0.2-1.1,0.9-0.7,1.8c-0.8,2.1-1.2,4.7,1.1,5.5c2.3,0.8,5-1.3,6-2.2
		S66.3,40.3,65.2,40.4z M73.6,34.5c-1.5,1.5-4.1,5.4-4.1,5.4c0.3-2.6,1-3.3,2.6-5.8c1.4-2.2-0.8-1.4-0.8-1.4s-5.1,4.3-2.9,9.1
		c-1.5,3.7-3.9,8.9-0.4,11.7c0.9,0.6,0.6-1.2,0.9-2.2c0.3-1,1.3-6.1,2.3-7.4c2.4-0.2,6.6-1.1,7.3-7.5C78.9,32.2,75.1,33.1,73.6,34.5
		z M76.7,37.8c-1,2.7-4.4,3.1-4.4,3.1s2.2-3.6,3.3-4.6C76.7,35.3,77.7,35.1,76.7,37.8z M39.8,28.8c2-2,2.9-5.7-0.6-5.5
		c0,0-1.3-1.7-4.1-0.9c-2.8,0.8-6.2,4.5-3.8,6.8c0,1.1,0.3,3.2,1.8,1.3C34.7,31.3,37.8,30.8,39.8,28.8z M32.2,27.7
		c-0.3-1.5,0.5-2.9,3.1-3.4C35.3,24.3,32.6,26.5,32.2,27.7z M38.2,25.2c2.8-1.1,1.9,1.6,0.4,2.7s-3,1.4-4.8,0.9
		C33.8,28.8,35.4,26.3,38.2,25.2z M95.7,35.7h-6c-0.1-2-0.4-4.1-0.8-6.1c0-0.1-0.1-0.2-0.2-0.2c-0.7-0.1-0.8,0-1.6,0
		c-0.2,0-0.4,0.2-0.3,0.4c0.2,0.9,0.5,3.2,0.6,5.8h-5.7c-0.2,0-0.3,0.1-0.3,0.3l-0.1,1.5c0,0.2,0.2,0.4,0.4,0.4l5.8,0
		c0,2.1,0,4.2-0.2,5.7c0,0.2,0.1,0.3,0.2,0.3c0.9,0.1,1.6,0.1,1.9,0.1c0.1,0,0.2-0.1,0.3-0.2c0.1-0.7,0.2-3,0.1-5.8l5.9,0
		c0.2,0,0.3-0.1,0.3-0.3v-1.6C96,35.9,95.9,35.7,95.7,35.7z"/>
	<path d="M49.9,0C35,0,22,7.9,15.1,19.5l2.2,0.7C23.9,9.5,36,2.2,49.9,2.2c16.5,0,30.6,10.2,35.7,24.4H88C82.8,11.2,67.7,0,49.9,0z"
		/>
</g>
</svg>
