<?xml version="1.0" encoding="utf-8"?>
<!-- Generator: Adobe Illustrator 27.0.0, SVG Export Plug-In . SVG Version: 6.00 Build 0)  -->
<svg version="1.1" id="Layer_1" xmlns="http://www.w3.org/2000/svg" xmlns:xlink="http://www.w3.org/1999/xlink" x="0px" y="0px"
	 viewBox="0 0 101.6 22.5" style="enable-background:new 0 0 101.6 22.5;" xml:space="preserve">
<style type="text/css">
	.st0{opacity:0.5;}
</style>
<path class="st0" d="M0.4,0.2L1,1.7l3.5,0.5v16c-1,0.2-2.6,0.5-3.6,0.7l-0.4,1.3h12L12,18.8l-3.6-0.6v-16c1,0,2.8,0.3,3.6,0.7
	c1.2,0.6,2,1.8,2,3.4c0,3-2.4,4.2-4.8,4.5v1.4c4.3,0,9.2-2.7,9.2-7.5c0-0.8-0.4-2.6-2.8-3.6c-1.4-0.6-4.4-0.9-7.2-0.9H0.4z
	 M20.4,0.2l0.4,1.3c1,0.2,2.6,0.5,3.6,0.7v16c-1,0.2-2.6,0.5-3.6,0.7l-0.4,1.3h12L32,18.8l-3.6-0.6v-16L32,1.6l0.4-1.4H20.4z
	 M34.4,0.2l0.4,1.3c0.7,0.1,1.6,0.3,2.4,0.5l0,0c0,0,1.8,2,3,3.6c1.2,1.6,2.4,3.2,3.4,4.4c-1.2,1.6-5.8,7.6-7,8.4
	c-0.1,0.1-0.1,0.1-0.2,0.2c-0.6,0.1-1.1,0.2-1.6,0.3l-0.4,1.3h10L44,18.8c-1.2-0.2-2.4-0.4-3.6-0.6c1.1-2.1,3.2-5.5,4.2-6.6
	c0.8,0.8,2,2.4,3.4,4c1.8,2,4,5,6.4,6.6h2L47.3,8.6c0,0,1.8-2.2,3-3.6c0.8-1,1.6-2,2.6-2.8l0.1-0.1C54,2,55,1.8,56,1.6l0.4-1.4h-10
	l0.4,1.3c0.7,0.1,1.6,0.3,2.5,0.5c-0.8,1.4-2.5,3.9-3.5,5c-0.8-1.1-3.2-4.7-3.5-5.1c0.6-0.1,1.2-0.2,1.7-0.3l0.4-1.4H34.4z
	 M62.4,0.2l0.4,1.3c0.8,0.2,2.1,0.4,3,0.6c-1.2,3-5.3,14-6.3,16.3c-0.9,0.2-2,0.4-2.8,0.5l-0.4,1.3h10L66,18.8
	c-0.9-0.1-1.7-0.3-2.6-0.4c0.3-1.7,1.1-4.7,1.6-6.2h6.2c0.8,2.1,1.5,4.1,2.2,6.2c-0.9,0.1-1.7,0.3-2.6,0.4l-0.4,1.4h10L80,18.9
	c-0.5-0.1-1.2-0.2-1.9-0.4c0,0,0-0.1-0.1-0.1c-1.2-2.4-2.8-6.8-3.6-8.8c-1-2.6-2.2-6.1-2.8-7.7c1-0.1,1.9-0.2,2.4-0.3l0.4-1.4H62.4z
	 M80.4,0.2L81,1.7l3.5,0.5v16l-2,0.7L82,20.2h10.4L92,18.8l-3.6-0.6v-6h1.3c1.5,2.1,4.2,5.4,8.3,8.4l2.4-0.4c-2-2.1-4.6-5.8-6.6-8.8
	c2-0.5,4.7-1.7,4.6-5.2c0-1.9-0.4-6-10-6H80.4z M88.4,2.2c1,0,2.8,0.3,3.6,0.7c1.2,0.6,2,1.8,2,3.4c0,1.7-0.7,2.7-1.8,3.5
	c-0.7,0.3-1.4,0.4-2.1,0.4h-1.7V2.2z M68,3.2c0.6,1.8,1.8,5.4,2.4,7h-4.7C66.4,8.2,67.4,4.9,68,3.2z"/>
</svg>
