<?xml version="1.0" encoding="utf-8"?>
<!-- Generator: Adobe Illustrator 27.0.0, SVG Export Plug-In . SVG Version: 6.00 Build 0)  -->
<svg version="1.1" id="Layer_1" xmlns="http://www.w3.org/2000/svg" xmlns:xlink="http://www.w3.org/1999/xlink" x="0px" y="0px"
	 viewBox="0 0 100.1 58.1" style="enable-background:new 0 0 100.1 58.1;" xml:space="preserve">
<style type="text/css">
	.st0{opacity:0.5;}
</style>
<path class="st0" d="M5.8,0C2.8,0,0.3,2.4,0,5.3c0,0.1,0,0.2,0,0.2v32C0.2,48.8,9.4,58,20.6,58c6.9,0,12.8-3.4,16.4-8.6
	c3.8,5,9.6,8.6,16.3,8.6c4.8,0,9.3-1.7,12.8-4.6c0.3,1.3,1,2.5,2.2,3.4c2.5,1.8,6.1,1.6,8-1L83,47l6.6,8.8c1.8,2.4,5.3,2.9,7.8,1
	l0.1,0.1c0,0,0-0.1,0.1-0.1s0.1,0,0.1-0.1l-0.1-0.1c2-1.5,2.4-4,1.8-6.2c0-0.1,0-0.1,0-0.2c0-0.4,0-0.8-0.2-1.2c0,0,0,0,0-0.1
	c0,0,0-0.1-0.1-0.1c0,0,0,0-0.1-0.1l-0.1-0.1c0,0-0.1-0.1-0.1-0.1l-8.6-11.4L99,25.6c1.9-2.5,1.3-6.1-1.2-8
	c-1.2-0.9-2.7-1.3-4.2-1.2s-2.9,0.9-3.8,2.2l-6.6,8.9l-6.8-8.8c0,0-0.1,0-0.1,0c-1.9-2.4-5.5-3.1-7.9-1c0,0,0,0,0,0.1
	c0,0-0.1,0-0.1,0c-1.1,0.8-1.8,2-2.1,3.3c-3.3-2.6-7.4-4.2-11.8-4.4c-0.1,0-0.1-0.1-0.2-0.1c-0.2-0.1-0.4-0.1-0.6-0.1
	c0,0-0.1,0-0.1,0c-0.1,0-0.2,0-0.2,0c-0.1,0-0.2,0-0.4,0.1c-0.1,0-0.1,0-0.2,0.1c-6.5,0.3-12.1,3.5-15.6,8.4
	c-3.8-5.1-9.6-8.6-16.4-8.6c-3.4,0-6.4,1-9.2,2.5V5.6C11.6,2.5,9,0,5.8,0z M5.8,4c1.2,0,1.8,0.7,1.8,1.6v16.8c0,0.8,0.4,1.5,1.1,1.8
	c0.7,0.3,1.5,0.3,2.1-0.2c2.9-2.2,6.2-3.4,10-3.4c6.2,0,11.8,3.8,14.6,9c0.4,0.7,1,1.1,1.8,1.1c0.8,0,1.4-0.5,1.8-1.1
	c2.6-5.3,8.1-8.9,14.4-8.9c0.1,0,0.1,0,0.2,0c9.1,0,16.6,7.5,16.4,16.8C70,46.5,62.5,54,53.4,54c-6.2,0-11.8-3.7-14.6-8.9
	c-0.4-0.7-1-1.1-1.8-1.1c-0.8,0-1.4,0.5-1.8,1.1c-2.7,5.3-8.1,8.9-14.6,8.9C11.5,54,4.2,46.7,4,37.6V5.8C4.1,4.7,4.9,4,5.8,4z
	 M94.1,20.4c0.4,0,0.9,0.1,1.3,0.4c0.7,0.5,0.9,1.7,0.4,2.4L86.2,36c-0.5,0.7-0.5,1.7,0,2.4l9.4,12.4c0,0,0,0,0,0.1l0.2,0.2
	c0.5,1,0.4,1.9-0.4,2.5c-0.1,0-0.2,0.1-0.2,0.1c-0.7,0.6-1.7,0.4-2.2-0.3l-8.2-10.9c-0.4-0.5-1-0.8-1.6-0.8s-1.2,0.3-1.6,0.8
	l-8.2,10.9c-0.5,0.6-1.6,0.8-2.4,0.2c-0.7-0.5-0.9-1.8-0.4-2.4L80,38.6c0.6-0.7,0.6-1.7,0-2.4l-9.6-12.8c-0.5-0.7-0.3-1.8,0.4-2.4
	c0,0,0.1-0.1,0.1-0.1c0.4-0.3,0.8-0.4,1.2-0.3s0.8,0.3,1.1,0.6c0,0,0,0,0.1,0.1L81.6,32c0.4,0.5,1,0.8,1.6,0.8s1.2-0.3,1.6-0.8
	L93,21C93.2,20.7,93.6,20.5,94.1,20.4z M20.6,24c-7.3,0-13.2,5.9-13.2,13.2s5.9,13.2,13.2,13.2s13.2-5.9,13.2-13.2S27.9,24,20.6,24z
	 M53.6,24c-7.3,0-13.2,5.9-13.2,13.2s5.9,13.2,13.2,13.2s13.2-5.9,13.2-13.2S60.9,24,53.6,24z M20.6,28c5.1,0,9.2,4.1,9.2,9.2
	s-4.1,9.2-9.2,9.2s-9.2-4.1-9.2-9.2S15.5,28,20.6,28z M53.6,28c5.1,0,9.2,4.1,9.2,9.2s-4.1,9.2-9.2,9.2s-9.2-4.1-9.2-9.2
	S48.5,28,53.6,28z M73.9,34.7l2,2.7l-2.1,2.8c0.1-0.9,0.2-1.8,0.2-2.7c0,0,0,0,0-0.1C74,36.4,74,35.5,73.9,34.7z"/>
</svg>
