<?xml version="1.0" encoding="utf-8"?>
<!-- Generator: Adobe Illustrator 27.0.0, SVG Export Plug-In . SVG Version: 6.00 Build 0)  -->
<svg version="1.1" id="Layer_1" xmlns="http://www.w3.org/2000/svg" xmlns:xlink="http://www.w3.org/1999/xlink" x="0px" y="0px"
	 viewBox="0 0 99 32.9" style="enable-background:new 0 0 99 32.9;" xml:space="preserve">
<style type="text/css">
	.st0{opacity:0.5;}
</style>
<path class="st0" d="M4.1,0c-2.2,0-4,1.8-4,4v23.7c0,2.2,1.8,4,4,4h6.3c2.2,0,4-1.8,4-4v-0.9c0.5,0.8,1.1,1.6,1.8,2.3l0.1,0.1
	c0,0,0.1,0.1,0.1,0.1l0.1,0.1c2.4,2.3,5.5,3.5,8.8,3.5c3.1,0,5.8-0.9,8-2.5c2,1.6,4.4,2.5,6.9,2.5c1.3,0,2.5-0.2,3.5-0.7h17.3h11.4
	h0.1h8.4c0.3,0,0.5-0.1,0.7-0.3l2.7-2.9c0.4-0.4,1.1-0.4,1.5,0l2.7,2.9c0.2,0.2,0.5,0.3,0.7,0.3h8.5c0.9,0,1.3-1,0.7-1.6l-7.2-7.7
	c-0.3-0.4-0.3-0.9,0-1.3l7.2-7.7c0.6-0.6,0.1-1.6-0.7-1.6h-8.5c-0.3,0-0.5,0.1-0.7,0.3l-2.7,2.9c-0.4,0.4-1.1,0.4-1.5,0l-2.7-2.9
	c-0.2-0.2-0.5-0.3-0.7-0.3h-8.5c-0.1,0-0.1,0-0.2,0c-0.1,0-0.1,0-0.2,0h-11V7.4h11.5c0.6,0,1-0.4,1-1V1.2c0-0.5-0.4-1-1-1H61.1h-9.2
	c-0.3-0.1-0.6-0.1-0.9-0.1h-6.3c-2.2,0-4,1.8-4,4v3.8c-0.1,0-0.3,0-0.4,0c-2.8,0-5.5,1.2-7.6,3.1c-2-1.6-4.5-2.5-7.3-2.5
	c-1.1,0-2.2,0.1-3.3,0.4c0,0,0-0.1,0-0.1V4c0-2.2-1.8-4-4-4H4.1z M4.1,4H18v4.9h-7.6v4.3H18v3.3c1.5-2.4,4.2-3.9,7.3-3.9
	c3.7,0,6.3,2.3,7.4,5.5c0,0.1,0,0.2,0.1,0.3c0.8-3.7,4.1-6.4,7.4-6.4c1.7,0,3.2,0.7,4.4,1.9V4.1h6.1v3.2v5.3v7.1v5.3V28h-6.1v-1.5
	c-1.6,2-2.8,2.4-4.4,2.4c-2.9,0-5.7-2.1-7-5.1c-0.9,2.8-3.6,5.1-7.9,5.1c-2.4,0-4.5-0.9-6-2.4c0-0.1-0.1-0.1-0.2-0.2
	c-1.4-1.5-2.3-3.4-2.3-5.6c0-1,0.2-1.9,0.5-2.7h-6.8v9.7H4.1V4z M25,15.5c-1.3,0-2.4,1-2.9,2.5h5.7C27.4,16.6,26.3,15.5,25,15.5z
	 M41.4,15.6c-1.7,0-3.2,1.9-3.2,4.2s1.4,4.2,3.2,4.2c1.8,0,3.2-1.9,3.2-4.2S43.2,15.6,41.4,15.6z M73.5,15.8l5.4,5.7
	c0.3,0.4,0.3,0.9,0,1.3l-5.4,5.7v-2.5c0-0.5-0.4-1-1-1H61.1v-6.4h11.5c0.6,0,1-0.4,1-1V15.8z M22.1,21.6c0,0.6,0.2,3.1,3.2,3.1
	c1.1,0,1.8-0.5,2.3-1h5.5c-0.3-0.7-0.4-1.4-0.5-2.1H22.1z M33.2,23.7c0,0,0,0.1,0,0.1C33.2,23.8,33.2,23.8,33.2,23.7L33.2,23.7z"/>
</svg>
