<?xml version="1.0" encoding="utf-8"?>
<!-- Generator: Adobe Illustrator 26.5.1, SVG Export Plug-In . SVG Version: 6.00 Build 0)  -->
<svg version="1.1" id="Layer_1" xmlns="http://www.w3.org/2000/svg" xmlns:xlink="http://www.w3.org/1999/xlink" x="0px" y="0px"
	 viewBox="0 0 416 409.8" style="enable-background:new 0 0 416 409.8;" xml:space="preserve">
<style type="text/css">
	.st0{fill:#000066;}
	.st1{fill:#3366FF;}
	.st2{fill:#FFFFFF;}
</style>
<g>
	<g transform="translate(84.0 153.0) rotate(0.0 711.0 1299.0) scale(3.0118185284025927 3.0123834701544454)">
		<path class="st0" d="M34.4,73.3H36v6.2h-1.6V73.3z"/>
		<path class="st0" d="M37.4,78.9h-4.3c-1,0-1.8,0.9-1.8,1.9h7.9C39.2,79.7,38.4,78.9,37.4,78.9z M-21.8,73.3h1.6v6.2h-1.6V73.3z"/>
		<path class="st0" d="M-18.8,78.9h-4.3c-1,0-1.8,0.9-1.8,1.9h7.9C-17,79.7-17.8,78.9-18.8,78.9L-18.8,78.9z"/>
		<path class="st1" d="M41.4-50.2v125h-68.7v-125h12l0.3,1.3c0.3,1,1.1,1.6,2.1,1.6h39.8c1,0,1.8-0.7,2.1-1.6l0.3-1.3H41.4z"/>
		<path class="st1" d="M-18.8-44.3h51.6V68.9h-51.6V-44.3z"/>
		<path class="st0" d="M32.8,35.1v33.8h-51.6V-44.3h6.8l2,3.6l0.9,1.6l1.7,2.9l0.8,1.3l0.9,1.7l0.8,1.3l1.8,3.2l0.8,1.3l6.3,11.1
			l0.8,1.3l1.8,3.2l0.8,1.3l0.9,1.7l3.3,5.9l6.3,11.1l1.3,2.2l1.2,2.2l0.8,1.5l0.9,1.7l3.2,5.7L32.8,35.1z"/>
		<path class="st0" d="M32.8-50.2v125h-1.3l0.1-6.4L32-43.4L32.8-50.2z"/>
		<path class="st2" d="M-23.7-50.2h0.6v125h-0.6V-50.2z M36.9-50.2h0.7v125h-0.7V-50.2z M27-37.8c0,0.8-0.3,1.5-0.8,2.1
			c-0.5,0.5-1.2,0.9-2,0.9H-6.7l-3.3-5.9h34.2C25.8-40.8,27-39.4,27-37.8L27-37.8z"/>
		<path class="st1" d="M-6.7-34.9h-3.5c-1.6,0-2.8-1.3-2.8-2.9c0-0.8,0.3-1.5,0.8-2.1c0.5-0.5,1.2-0.9,2-0.9h0.1L-6.7-34.9z
			 M7.3-38.8v1.9c0,0.4-0.3,0.6-0.6,0.6H-7.4l-1.7-2.9c0.1-0.2,0.3-0.3,0.5-0.3H6.7C7-39.4,7.3-39.1,7.3-38.8z"/>
		<path class="st0" d="M-7.4-36.2h-1.2c-0.3,0-0.6-0.3-0.6-0.6v-1.9c0-0.1,0-0.3,0.1-0.4L-7.4-36.2z"/>
		<ellipse class="st0" cx="11.6" cy="-37.9" rx="4.3" ry="4.5"/>
		<ellipse class="st1" cx="11.4" cy="-37.8" rx="4.2" ry="4.4"/>
		<path class="st1" d="M17-35.8c-0.3,0-0.6-0.3-0.6-0.6v-2.8c0-0.4,0.3-0.6,0.6-0.6c0.3,0,0.6,0.3,0.6,0.6v2.8
			C17.7-36.1,17.4-35.8,17-35.8L17-35.8z M19.6-35.8c-0.3,0-0.6-0.3-0.6-0.6v-2.8c0-0.4,0.3-0.6,0.6-0.6c0.3,0,0.6,0.3,0.6,0.6v2.8
			C20.2-36.1,19.9-35.8,19.6-35.8L19.6-35.8z M22.1-35.8c-0.3,0-0.6-0.3-0.6-0.6v-2.8c0-0.4,0.3-0.6,0.6-0.6c0.3,0,0.6,0.3,0.6,0.6
			v2.8C22.7-36.1,22.5-35.8,22.1-35.8L22.1-35.8z"/>
		<path class="st2" d="M27-30.3c0,0.8-0.3,1.5-0.8,2.1c-0.5,0.5-1.2,0.9-2,0.9H-2.4l-3.3-5.9h29.9C25.8-33.2,27-31.9,27-30.3
			L27-30.3z"/>
		<path class="st1" d="M-2.4-27.3h-7.7c-1.6,0-2.8-1.3-2.8-2.9c0-0.8,0.3-1.5,0.8-2.1c0.5-0.5,1.2-0.9,2-0.9h4.4L-2.4-27.3z
			 M7.3-31.3v1.9c0,0.4-0.3,0.6-0.6,0.6h-9.9L-5-31.9H6.7C7-31.9,7.3-31.6,7.3-31.3L7.3-31.3z"/>
		<path class="st0" d="M-3.2-28.7h-5.4c-0.3,0-0.6-0.3-0.6-0.6v-1.9c0-0.4,0.3-0.6,0.6-0.6H-5L-3.2-28.7z"/>
		<ellipse class="st0" cx="11.6" cy="-30.4" rx="4.3" ry="4.5"/>
		<ellipse class="st1" cx="11.4" cy="-30.3" rx="4.2" ry="4.4"/>
		<path class="st1" d="M17-28.3c-0.3,0-0.6-0.3-0.6-0.6v-2.8c0-0.4,0.3-0.6,0.6-0.6c0.3,0,0.6,0.3,0.6,0.6v2.8
			C17.7-28.6,17.4-28.3,17-28.3L17-28.3z M19.6-28.3c-0.3,0-0.6-0.3-0.6-0.6v-2.8c0-0.4,0.3-0.6,0.6-0.6c0.3,0,0.6,0.3,0.6,0.6v2.8
			C20.2-28.6,19.9-28.3,19.6-28.3L19.6-28.3z M22.1-28.3c-0.3,0-0.6-0.3-0.6-0.6v-2.8c0-0.4,0.3-0.6,0.6-0.6c0.3,0,0.6,0.3,0.6,0.6
			v2.8C22.7-28.6,22.5-28.3,22.1-28.3L22.1-28.3z"/>
		<path class="st2" d="M27-13.3c0,0.8-0.3,1.5-0.8,2.1c-0.5,0.5-1.2,0.9-2,0.9h-17l-3.3-5.9h20.4C25.8-16.2,27-14.9,27-13.3L27-13.3
			z"/>
		<path class="st1" d="M7.2-10.4h-17.3c-1.6,0-2.8-1.3-2.8-2.9c0-0.8,0.3-1.5,0.8-2.1c0.5-0.5,1.2-0.9,2-0.9h14L7.2-10.4z"/>
		<path class="st1" d="M7.3-14.3v1.9c0,0.4-0.3,0.6-0.6,0.6H6.4l-1.8-3.2h2.1C7-14.9,7.3-14.6,7.3-14.3z"/>
		<path class="st0" d="M6.4-11.7h-15c-0.3,0-0.6-0.3-0.6-0.6v-1.9c0-0.4,0.3-0.6,0.6-0.6H4.6L6.4-11.7z"/>
		<ellipse class="st0" cx="11.6" cy="-13.4" rx="4.3" ry="4.5"/>
		<ellipse class="st1" cx="11.4" cy="-13.3" rx="4.2" ry="4.4"/>
		<path class="st1" d="M17-11.3c-0.3,0-0.6-0.3-0.6-0.6v-2.8c0-0.4,0.3-0.6,0.6-0.6c0.3,0,0.6,0.3,0.6,0.6v2.8
			C17.7-11.6,17.4-11.3,17-11.3L17-11.3z M19.6-11.3c-0.3,0-0.6-0.3-0.6-0.6v-2.8c0-0.4,0.3-0.6,0.6-0.6c0.3,0,0.6,0.3,0.6,0.6v2.8
			C20.2-11.6,19.9-11.3,19.6-11.3L19.6-11.3z M22.1-11.3c-0.3,0-0.6-0.3-0.6-0.6v-2.8c0-0.4,0.3-0.6,0.6-0.6c0.3,0,0.6,0.3,0.6,0.6
			v2.8C22.7-11.6,22.5-11.3,22.1-11.3L22.1-11.3z"/>
		<path class="st2" d="M27-5.8c0,0.8-0.3,1.5-0.8,2.1c-0.5,0.5-1.2,0.9-2,0.9H11.4L8.1-8.7h16.1C25.8-8.7,27-7.4,27-5.8L27-5.8z"/>
		<path class="st1" d="M11.4-2.8h-21.6c-1.6,0-2.8-1.3-2.8-2.9c0-0.8,0.3-1.5,0.8-2.1c0.5-0.5,1.2-0.9,2-0.9H8.1L11.4-2.8z"/>
		<path class="st0" d="M7.3-6.7v1.9c0,0.4-0.3,0.6-0.6,0.6c0,0,0,0,0,0H-8.6c-0.3,0-0.6-0.3-0.6-0.6v-1.9c0-0.4,0.3-0.6,0.6-0.6H6.7
			C7-7.4,7.3-7.1,7.3-6.7L7.3-6.7z"/>
		<ellipse class="st0" cx="11.6" cy="-5.9" rx="4.3" ry="4.5"/>
		<ellipse class="st1" cx="11.4" cy="-5.8" rx="4.2" ry="4.4"/>
		<path class="st1" d="M17-3.7c-0.3,0-0.6-0.3-0.6-0.6v-2.8c0-0.4,0.3-0.6,0.6-0.6c0.3,0,0.6,0.3,0.6,0.6v2.8
			C17.7-4,17.4-3.7,17-3.7L17-3.7z M19.6-3.7C19.2-3.7,19-4,19-4.4v-2.8c0-0.4,0.3-0.6,0.6-0.6c0.3,0,0.6,0.3,0.6,0.6v2.8
			C20.2-4,19.9-3.7,19.6-3.7L19.6-3.7z M22.1-3.7c-0.3,0-0.6-0.3-0.6-0.6v-2.8c0-0.4,0.3-0.6,0.6-0.6c0.3,0,0.6,0.3,0.6,0.6v2.8
			C22.7-4,22.5-3.7,22.1-3.7L22.1-3.7z"/>
		<path class="st2" d="M27,11.2c0,0.8-0.3,1.5-0.8,2.1c-0.5,0.5-1.2,0.9-2,0.9H21l-3.3-5.9h6.5C25.8,8.3,27,9.6,27,11.2L27,11.2z"/>
		<path class="st1" d="M21,14.2h-31.2c-1.6,0-2.8-1.3-2.8-2.9c0-0.8,0.3-1.5,0.8-2.1c0.5-0.5,1.2-0.9,2-0.9h27.9L21,14.2z"/>
		<path class="st0" d="M7.3,10.2v1.9c0,0.4-0.3,0.6-0.6,0.6c0,0,0,0,0,0H-8.6c-0.3,0-0.6-0.3-0.6-0.6v-1.9c0-0.4,0.3-0.6,0.6-0.6
			H6.7C7,9.6,7.3,9.9,7.3,10.2L7.3,10.2z"/>
		<ellipse class="st0" cx="11.6" cy="11.1" rx="4.3" ry="4.5"/>
		<ellipse class="st0" cx="11.4" cy="11.2" rx="4.2" ry="4.4"/>
		<path class="st0" d="M17,13.2c-0.3,0-0.6-0.3-0.6-0.6V9.8c0-0.4,0.3-0.6,0.6-0.6c0.3,0,0.6,0.3,0.6,0.6v2.8
			C17.7,12.9,17.4,13.2,17,13.2L17,13.2z"/>
		<path class="st1" d="M20.2,9.8v2.8c0,0,0,0.1,0,0.1L19,10.5V9.8c0-0.4,0.3-0.6,0.6-0.6c0.2,0,0.3,0.1,0.4,0.2
			C20.1,9.5,20.2,9.7,20.2,9.8L20.2,9.8z"/>
		<path class="st0" d="M20.2,12.7c0,0.3-0.3,0.6-0.6,0.6c-0.3,0-0.6-0.3-0.6-0.6v-2.1L20.2,12.7z"/>
		<path class="st1" d="M22.1,13.2c-0.3,0-0.6-0.3-0.6-0.6V9.8c0-0.4,0.3-0.6,0.6-0.6c0.3,0,0.6,0.3,0.6,0.6v2.8
			C22.7,12.9,22.5,13.2,22.1,13.2L22.1,13.2z"/>
		<path class="st2" d="M27,18.7c0,1.2-0.7,2.3-1.8,2.8L22,15.8h2.2C25.8,15.8,27,17.1,27,18.7L27,18.7z"/>
		<path class="st1" d="M25.2,21.5c-0.3,0.1-0.6,0.2-1,0.2h-34.3c-1.6,0-2.8-1.3-2.8-2.9c0-0.8,0.3-1.5,0.8-2.1
			c0.5-0.5,1.2-0.9,2-0.9H22L25.2,21.5z"/>
		<g>
			<path class="st0" d="M7.3,17.8v1.9c0,0.4-0.3,0.6-0.6,0.6c0,0,0,0,0,0H-8.6c-0.3,0-0.6-0.3-0.6-0.6v-1.9c0-0.4,0.3-0.6,0.6-0.6
				H6.7C7,17.1,7.3,17.4,7.3,17.8L7.3,17.8z"/>
			<ellipse class="st0" cx="11.6" cy="18.6" rx="4.3" ry="4.5"/>
			<ellipse class="st0" cx="11.4" cy="18.7" rx="4.2" ry="4.4"/>
			<path class="st0" d="M17,20.8c-0.3,0-0.6-0.3-0.6-0.6v-2.8c0-0.4,0.3-0.6,0.6-0.6c0.3,0,0.6,0.3,0.6,0.6v2.8
				C17.7,20.5,17.4,20.8,17,20.8L17,20.8z M19.6,20.8c-0.3,0-0.6-0.3-0.6-0.6v-2.8c0-0.4,0.3-0.6,0.6-0.6c0.3,0,0.6,0.3,0.6,0.6v2.8
				C20.2,20.5,19.9,20.8,19.6,20.8L19.6,20.8z M22.1,20.8c-0.3,0-0.6-0.3-0.6-0.6v-2.8c0-0.4,0.3-0.6,0.6-0.6c0.3,0,0.6,0.3,0.6,0.6
				v2.8C22.7,20.5,22.5,20.8,22.1,20.8L22.1,20.8z"/>
		</g>
		<path class="st1" d="M24.2,38.7h-34.3c-1.6,0-2.8-1.3-2.8-2.9c0-1.6,1.3-2.9,2.8-2.9h34.3c1.6,0,2.8,1.3,2.8,2.9
			C27,37.3,25.8,38.7,24.2,38.7L24.2,38.7z"/>
		<path class="st0" d="M7.3,34.8v1.9c0,0.4-0.3,0.6-0.6,0.6c0,0,0,0,0,0H-8.6c-0.3,0-0.6-0.3-0.6-0.6v-1.9c0-0.4,0.3-0.6,0.6-0.6
			H6.7C7,34.1,7.3,34.4,7.3,34.8L7.3,34.8z"/>
		<ellipse class="st0" cx="11.6" cy="35.6" rx="4.3" ry="4.5"/>
		<ellipse class="st0" cx="11.4" cy="35.7" rx="4.2" ry="4.4"/>
		<path class="st0" d="M17,37.7c-0.3,0-0.6-0.3-0.6-0.6v-2.8c0-0.4,0.3-0.6,0.6-0.6c0.3,0,0.6,0.3,0.6,0.6v2.8
			C17.7,37.5,17.4,37.7,17,37.7L17,37.7z M19.6,37.7c-0.3,0-0.6-0.3-0.6-0.6v-2.8c0-0.4,0.3-0.6,0.6-0.6c0.3,0,0.6,0.3,0.6,0.6v2.8
			C20.2,37.5,19.9,37.7,19.6,37.7L19.6,37.7z M22.1,37.7c-0.3,0-0.6-0.3-0.6-0.6v-2.8c0-0.4,0.3-0.6,0.6-0.6c0.3,0,0.6,0.3,0.6,0.6
			v2.8C22.7,37.5,22.5,37.7,22.1,37.7L22.1,37.7z"/>
		<path class="st1" d="M24.2,46.2h-34.3c-1.6,0-2.8-1.3-2.8-2.9c0-1.6,1.3-2.9,2.8-2.9h34.3c1.6,0,2.8,1.3,2.8,2.9
			C27,44.9,25.8,46.2,24.2,46.2L24.2,46.2z"/>
		<path class="st0" d="M7.3,42.3v1.9c0,0.4-0.3,0.6-0.6,0.6c0,0,0,0,0,0H-8.6c-0.3,0-0.6-0.3-0.6-0.6v-1.9c0-0.4,0.3-0.6,0.6-0.6
			H6.7C7,41.7,7.3,41.9,7.3,42.3L7.3,42.3z"/>
		<ellipse class="st0" cx="11.6" cy="43.1" rx="4.3" ry="4.5"/>
		<ellipse class="st0" cx="11.4" cy="43.3" rx="4.2" ry="4.4"/>
		<path class="st0" d="M17,45.3c-0.3,0-0.6-0.3-0.6-0.6v-2.8c0-0.4,0.3-0.6,0.6-0.6c0.3,0,0.6,0.3,0.6,0.6v2.8
			C17.7,45,17.4,45.3,17,45.3L17,45.3z M19.6,45.3c-0.3,0-0.6-0.3-0.6-0.6v-2.8c0-0.4,0.3-0.6,0.6-0.6c0.3,0,0.6,0.3,0.6,0.6v2.8
			C20.2,45,19.9,45.3,19.6,45.3L19.6,45.3z M22.1,45.3c-0.3,0-0.6-0.3-0.6-0.6v-2.8c0-0.4,0.3-0.6,0.6-0.6c0.3,0,0.6,0.3,0.6,0.6
			v2.8C22.7,45,22.5,45.3,22.1,45.3L22.1,45.3z"/>
	</g>
	<g transform="translate(1497.0 153.0) rotate(0.0 711.0 1299.0) scale(3.0118185284025927 3.0123834701544454)">
		<path class="st0" d="M-366.4,73.3h1.6v6.2h-1.6V73.3z"/>
		<path class="st0" d="M-363.5,78.9h-4.3c-1,0-1.8,0.9-1.8,1.9h7.9C-361.7,79.7-362.5,78.9-363.5,78.9z M-422.6,73.3h1.6v6.2h-1.6
			V73.3z"/>
		<path class="st0" d="M-419.7,78.9h-4.3c-1,0-1.8,0.9-1.8,1.9h7.9C-417.9,79.7-418.7,78.9-419.7,78.9L-419.7,78.9z"/>
		<path class="st1" d="M-359.5-50.2v125h-68.7v-125h12l0.3,1.3c0.3,1,1.1,1.6,2.1,1.6h39.8c1,0,1.8-0.7,2.1-1.6l0.3-1.3H-359.5z"/>
		<path class="st1" d="M-419.7-44.3h51.6V68.9h-51.6V-44.3z"/>
		<path class="st0" d="M-368,35.1v33.8h-51.6V-44.3h6.8l2,3.6l0.9,1.6l1.7,2.9l0.8,1.3l0.9,1.7l0.8,1.3l1.8,3.2l0.8,1.3l6.3,11.1
			l0.8,1.3l1.8,3.2l0.8,1.3l0.9,1.7l3.3,5.9l6.3,11.1l1.3,2.2l1.2,2.2l0.8,1.5l0.9,1.7l3.2,5.7L-368,35.1z"/>
		<path class="st0" d="M-368-50.2v125h-1.3l0.1-6.4l0.4-111.9L-368-50.2z"/>
		<path class="st2" d="M-424.5-50.2h0.6v125h-0.6V-50.2z M-363.9-50.2h0.7v125h-0.7V-50.2z M-373.8-37.8c0,0.8-0.3,1.5-0.8,2.1
			c-0.5,0.5-1.2,0.9-2,0.9h-30.9l-3.3-5.9h34.2C-375.1-40.8-373.8-39.4-373.8-37.8L-373.8-37.8z"/>
		<path class="st1" d="M-407.5-34.9h-3.5c-1.6,0-2.8-1.3-2.8-2.9c0-0.8,0.3-1.5,0.8-2.1c0.5-0.5,1.2-0.9,2-0.9h0.1L-407.5-34.9z
			 M-393.5-38.8v1.9c0,0.4-0.3,0.6-0.6,0.6h-14.1l-1.7-2.9c0.1-0.2,0.3-0.3,0.5-0.3h15.3C-393.8-39.4-393.5-39.1-393.5-38.8z"/>
		<path class="st0" d="M-408.3-36.2h-1.2c-0.3,0-0.6-0.3-0.6-0.6v-1.9c0-0.1,0-0.3,0.1-0.4L-408.3-36.2z"/>
		<ellipse class="st0" cx="-389.2" cy="-37.9" rx="4.3" ry="4.5"/>
		<ellipse class="st1" cx="-389.5" cy="-37.8" rx="4.2" ry="4.4"/>
		<path class="st1" d="M-383.8-35.8c-0.3,0-0.6-0.3-0.6-0.6v-2.8c0-0.4,0.3-0.6,0.6-0.6c0.3,0,0.6,0.3,0.6,0.6v2.8
			C-383.2-36.1-383.5-35.8-383.8-35.8L-383.8-35.8z M-381.3-35.8c-0.3,0-0.6-0.3-0.6-0.6v-2.8c0-0.4,0.3-0.6,0.6-0.6
			c0.3,0,0.6,0.3,0.6,0.6v2.8C-380.7-36.1-380.9-35.8-381.3-35.8L-381.3-35.8z M-378.7-35.8c-0.3,0-0.6-0.3-0.6-0.6v-2.8
			c0-0.4,0.3-0.6,0.6-0.6c0.3,0,0.6,0.3,0.6,0.6v2.8C-378.1-36.1-378.4-35.8-378.7-35.8L-378.7-35.8z"/>
		<path class="st2" d="M-373.8-30.3c0,0.8-0.3,1.5-0.8,2.1c-0.5,0.5-1.2,0.9-2,0.9h-26.6l-3.3-5.9h29.9
			C-375.1-33.2-373.8-31.9-373.8-30.3L-373.8-30.3z"/>
		<path class="st1" d="M-403.3-27.3h-7.7c-1.6,0-2.8-1.3-2.8-2.9c0-0.8,0.3-1.5,0.8-2.1c0.5-0.5,1.2-0.9,2-0.9h4.4L-403.3-27.3z
			 M-393.5-31.3v1.9c0,0.4-0.3,0.6-0.6,0.6h-9.9l-1.8-3.2h11.7C-393.8-31.9-393.5-31.6-393.5-31.3L-393.5-31.3z"/>
		<path class="st0" d="M-404-28.7h-5.4c-0.3,0-0.6-0.3-0.6-0.6v-1.9c0-0.4,0.3-0.6,0.6-0.6h3.6L-404-28.7z"/>
		<ellipse class="st0" cx="-389.2" cy="-30.4" rx="4.3" ry="4.5"/>
		<ellipse class="st1" cx="-389.5" cy="-30.3" rx="4.2" ry="4.4"/>
		<path class="st1" d="M-383.8-28.3c-0.3,0-0.6-0.3-0.6-0.6v-2.8c0-0.4,0.3-0.6,0.6-0.6c0.3,0,0.6,0.3,0.6,0.6v2.8
			C-383.2-28.6-383.5-28.3-383.8-28.3L-383.8-28.3z M-381.3-28.3c-0.3,0-0.6-0.3-0.6-0.6v-2.8c0-0.4,0.3-0.6,0.6-0.6
			c0.3,0,0.6,0.3,0.6,0.6v2.8C-380.7-28.6-380.9-28.3-381.3-28.3L-381.3-28.3z M-378.7-28.3c-0.3,0-0.6-0.3-0.6-0.6v-2.8
			c0-0.4,0.3-0.6,0.6-0.6c0.3,0,0.6,0.3,0.6,0.6v2.8C-378.1-28.6-378.4-28.3-378.7-28.3L-378.7-28.3z"/>
		<path class="st2" d="M-373.8-13.3c0,0.8-0.3,1.5-0.8,2.1c-0.5,0.5-1.2,0.9-2,0.9h-17l-3.3-5.9h20.4
			C-375.1-16.2-373.8-14.9-373.8-13.3L-373.8-13.3z"/>
		<path class="st1" d="M-393.7-10.4H-411c-1.6,0-2.8-1.3-2.8-2.9c0-0.8,0.3-1.5,0.8-2.1c0.5-0.5,1.2-0.9,2-0.9h14L-393.7-10.4z"/>
		<path class="st1" d="M-393.5-14.3v1.9c0,0.4-0.3,0.6-0.6,0.6h-0.3l-1.8-3.2h2.1C-393.8-14.9-393.5-14.6-393.5-14.3z"/>
		<path class="st0" d="M-394.4-11.7h-15c-0.3,0-0.6-0.3-0.6-0.6v-1.9c0-0.4,0.3-0.6,0.6-0.6h13.2L-394.4-11.7z"/>
		<ellipse class="st0" cx="-389.2" cy="-13.4" rx="4.3" ry="4.5"/>
		<ellipse class="st1" cx="-389.5" cy="-13.3" rx="4.2" ry="4.4"/>
		<path class="st1" d="M-383.8-11.3c-0.3,0-0.6-0.3-0.6-0.6v-2.8c0-0.4,0.3-0.6,0.6-0.6c0.3,0,0.6,0.3,0.6,0.6v2.8
			C-383.2-11.6-383.5-11.3-383.8-11.3L-383.8-11.3z M-381.3-11.3c-0.3,0-0.6-0.3-0.6-0.6v-2.8c0-0.4,0.3-0.6,0.6-0.6
			c0.3,0,0.6,0.3,0.6,0.6v2.8C-380.7-11.6-380.9-11.3-381.3-11.3L-381.3-11.3z M-378.7-11.3c-0.3,0-0.6-0.3-0.6-0.6v-2.8
			c0-0.4,0.3-0.6,0.6-0.6c0.3,0,0.6,0.3,0.6,0.6v2.8C-378.1-11.6-378.4-11.3-378.7-11.3L-378.7-11.3z"/>
		<path class="st2" d="M-373.8-5.8c0,0.8-0.3,1.5-0.8,2.1c-0.5,0.5-1.2,0.9-2,0.9h-12.8l-3.3-5.9h16.1
			C-375.1-8.7-373.8-7.4-373.8-5.8L-373.8-5.8z"/>
		<path class="st1" d="M-389.4-2.8H-411c-1.6,0-2.8-1.3-2.8-2.9c0-0.8,0.3-1.5,0.8-2.1c0.5-0.5,1.2-0.9,2-0.9h18.3L-389.4-2.8z"/>
		<path class="st0" d="M-393.5-6.7v1.9c0,0.4-0.3,0.6-0.6,0.6c0,0,0,0,0,0h-15.3c-0.3,0-0.6-0.3-0.6-0.6v-1.9c0-0.4,0.3-0.6,0.6-0.6
			h15.3C-393.8-7.4-393.5-7.1-393.5-6.7L-393.5-6.7z"/>
		<ellipse class="st0" cx="-389.2" cy="-5.9" rx="4.3" ry="4.5"/>
		<ellipse class="st1" cx="-389.5" cy="-5.8" rx="4.2" ry="4.4"/>
		<path class="st1" d="M-383.8-3.7c-0.3,0-0.6-0.3-0.6-0.6v-2.8c0-0.4,0.3-0.6,0.6-0.6c0.3,0,0.6,0.3,0.6,0.6v2.8
			C-383.2-4-383.5-3.7-383.8-3.7L-383.8-3.7z M-381.3-3.7c-0.3,0-0.6-0.3-0.6-0.6v-2.8c0-0.4,0.3-0.6,0.6-0.6c0.3,0,0.6,0.3,0.6,0.6
			v2.8C-380.7-4-380.9-3.7-381.3-3.7L-381.3-3.7z M-378.7-3.7c-0.3,0-0.6-0.3-0.6-0.6v-2.8c0-0.4,0.3-0.6,0.6-0.6
			c0.3,0,0.6,0.3,0.6,0.6v2.8C-378.1-4-378.4-3.7-378.7-3.7L-378.7-3.7z"/>
		<path class="st2" d="M-373.8,11.2c0,0.8-0.3,1.5-0.8,2.1c-0.5,0.5-1.2,0.9-2,0.9h-3.2l-3.3-5.9h6.5
			C-375.1,8.3-373.8,9.6-373.8,11.2L-373.8,11.2z"/>
		<path class="st1" d="M-379.8,14.2H-411c-1.6,0-2.8-1.3-2.8-2.9c0-0.8,0.3-1.5,0.8-2.1c0.5-0.5,1.2-0.9,2-0.9h27.9L-379.8,14.2z"/>
		<path class="st0" d="M-393.5,10.2v1.9c0,0.4-0.3,0.6-0.6,0.6c0,0,0,0,0,0h-15.3c-0.3,0-0.6-0.3-0.6-0.6v-1.9
			c0-0.4,0.3-0.6,0.6-0.6h15.3C-393.8,9.6-393.5,9.9-393.5,10.2L-393.5,10.2z"/>
		<ellipse class="st0" cx="-389.2" cy="11.1" rx="4.3" ry="4.5"/>
		<ellipse class="st0" cx="-389.5" cy="11.2" rx="4.2" ry="4.4"/>
		<path class="st0" d="M-383.8,13.2c-0.3,0-0.6-0.3-0.6-0.6V9.8c0-0.4,0.3-0.6,0.6-0.6c0.3,0,0.6,0.3,0.6,0.6v2.8
			C-383.2,12.9-383.5,13.2-383.8,13.2L-383.8,13.2z"/>
		<path class="st1" d="M-380.7,9.8v2.8c0,0,0,0.1,0,0.1l-1.2-2.2V9.8c0-0.4,0.3-0.6,0.6-0.6c0.2,0,0.3,0.1,0.4,0.2
			C-380.7,9.5-380.7,9.7-380.7,9.8L-380.7,9.8z"/>
		<path class="st0" d="M-380.7,12.7c0,0.3-0.3,0.6-0.6,0.6c-0.3,0-0.6-0.3-0.6-0.6v-2.1L-380.7,12.7z"/>
		<path class="st1" d="M-378.7,13.2c-0.3,0-0.6-0.3-0.6-0.6V9.8c0-0.4,0.3-0.6,0.6-0.6c0.3,0,0.6,0.3,0.6,0.6v2.8
			C-378.1,12.9-378.4,13.2-378.7,13.2L-378.7,13.2z"/>
		<path class="st2" d="M-373.8,18.7c0,1.2-0.7,2.3-1.8,2.8l-3.2-5.7h2.2C-375.1,15.8-373.8,17.1-373.8,18.7L-373.8,18.7z"/>
		<path class="st1" d="M-375.7,21.5c-0.3,0.1-0.6,0.2-1,0.2H-411c-1.6,0-2.8-1.3-2.8-2.9c0-0.8,0.3-1.5,0.8-2.1
			c0.5-0.5,1.2-0.9,2-0.9h32.1L-375.7,21.5z"/>
		<g>
			<path class="st0" d="M-393.5,17.8v1.9c0,0.4-0.3,0.6-0.6,0.6c0,0,0,0,0,0h-15.3c-0.3,0-0.6-0.3-0.6-0.6v-1.9
				c0-0.4,0.3-0.6,0.6-0.6h15.3C-393.8,17.1-393.5,17.4-393.5,17.8L-393.5,17.8z"/>
			<ellipse class="st0" cx="-389.2" cy="18.6" rx="4.3" ry="4.5"/>
			<ellipse class="st0" cx="-389.5" cy="18.7" rx="4.2" ry="4.4"/>
			<path class="st0" d="M-383.8,20.8c-0.3,0-0.6-0.3-0.6-0.6v-2.8c0-0.4,0.3-0.6,0.6-0.6c0.3,0,0.6,0.3,0.6,0.6v2.8
				C-383.2,20.5-383.5,20.8-383.8,20.8L-383.8,20.8z M-381.3,20.8c-0.3,0-0.6-0.3-0.6-0.6v-2.8c0-0.4,0.3-0.6,0.6-0.6
				c0.3,0,0.6,0.3,0.6,0.6v2.8C-380.7,20.5-380.9,20.8-381.3,20.8L-381.3,20.8z M-378.7,20.8c-0.3,0-0.6-0.3-0.6-0.6v-2.8
				c0-0.4,0.3-0.6,0.6-0.6c0.3,0,0.6,0.3,0.6,0.6v2.8C-378.1,20.5-378.4,20.8-378.7,20.8L-378.7,20.8z"/>
		</g>
		<path class="st1" d="M-376.7,38.7H-411c-1.6,0-2.8-1.3-2.8-2.9c0-1.6,1.3-2.9,2.8-2.9h34.3c1.6,0,2.8,1.3,2.8,2.9
			C-373.8,37.3-375.1,38.7-376.7,38.7L-376.7,38.7z"/>
		<path class="st0" d="M-393.5,34.8v1.9c0,0.4-0.3,0.6-0.6,0.6c0,0,0,0,0,0h-15.3c-0.3,0-0.6-0.3-0.6-0.6v-1.9
			c0-0.4,0.3-0.6,0.6-0.6h15.3C-393.8,34.1-393.5,34.4-393.5,34.8L-393.5,34.8z"/>
		<ellipse class="st0" cx="-389.2" cy="35.6" rx="4.3" ry="4.5"/>
		<ellipse class="st0" cx="-389.5" cy="35.7" rx="4.2" ry="4.4"/>
		<path class="st0" d="M-383.8,37.7c-0.3,0-0.6-0.3-0.6-0.6v-2.8c0-0.4,0.3-0.6,0.6-0.6c0.3,0,0.6,0.3,0.6,0.6v2.8
			C-383.2,37.5-383.5,37.7-383.8,37.7L-383.8,37.7z M-381.3,37.7c-0.3,0-0.6-0.3-0.6-0.6v-2.8c0-0.4,0.3-0.6,0.6-0.6
			c0.3,0,0.6,0.3,0.6,0.6v2.8C-380.7,37.5-380.9,37.7-381.3,37.7L-381.3,37.7z M-378.7,37.7c-0.3,0-0.6-0.3-0.6-0.6v-2.8
			c0-0.4,0.3-0.6,0.6-0.6c0.3,0,0.6,0.3,0.6,0.6v2.8C-378.1,37.5-378.4,37.7-378.7,37.7L-378.7,37.7z"/>
		<path class="st1" d="M-376.7,46.2H-411c-1.6,0-2.8-1.3-2.8-2.9c0-1.6,1.3-2.9,2.8-2.9h34.3c1.6,0,2.8,1.3,2.8,2.9
			C-373.8,44.9-375.1,46.2-376.7,46.2L-376.7,46.2z"/>
		<path class="st0" d="M-393.5,42.3v1.9c0,0.4-0.3,0.6-0.6,0.6c0,0,0,0,0,0h-15.3c-0.3,0-0.6-0.3-0.6-0.6v-1.9
			c0-0.4,0.3-0.6,0.6-0.6h15.3C-393.8,41.7-393.5,41.9-393.5,42.3L-393.5,42.3z"/>
		<ellipse class="st0" cx="-389.2" cy="43.1" rx="4.3" ry="4.5"/>
		<ellipse class="st0" cx="-389.5" cy="43.3" rx="4.2" ry="4.4"/>
		<path class="st0" d="M-383.8,45.3c-0.3,0-0.6-0.3-0.6-0.6v-2.8c0-0.4,0.3-0.6,0.6-0.6c0.3,0,0.6,0.3,0.6,0.6v2.8
			C-383.2,45-383.5,45.3-383.8,45.3L-383.8,45.3z M-381.3,45.3c-0.3,0-0.6-0.3-0.6-0.6v-2.8c0-0.4,0.3-0.6,0.6-0.6
			c0.3,0,0.6,0.3,0.6,0.6v2.8C-380.7,45-380.9,45.3-381.3,45.3L-381.3,45.3z M-378.7,45.3c-0.3,0-0.6-0.3-0.6-0.6v-2.8
			c0-0.4,0.3-0.6,0.6-0.6c0.3,0,0.6,0.3,0.6,0.6v2.8C-378.1,45-378.4,45.3-378.7,45.3L-378.7,45.3z"/>
	</g>
	<g transform="translate(2283.0 2409.0) rotate(0.0 117.0 208.5) scale(3.0303422732747123 2.979401404677017)">
		<path class="st0" d="M-636.6-689.6l0,0.6l-0.8,17.3h-8.4l-0.8-16.6l-0.1-1.3H-636.6z"/>
		<path class="st2" d="M-636.6-685.2h-10.1l0.4,8.1h9.3L-636.6-685.2z"/>
		<path class="st0" d="M-636.6-689.6l0,0.6l-10,0.7l-0.1-1.3H-636.6z"/>
		<path class="st2" d="M-636-689h-11.2l0.1-0.6l0.2-0.6h10.7L-636-689z"/>
		<path class="st1" d="M-636.3-690l-10.8,0.4l0.1-0.6h3L-636.3-690z"/>
		<g>
			<path class="st2" d="M-636.3-690h-10.6c-0.2,0-0.3-0.1-0.3-0.3c0-0.2,0.1-0.3,0.3-0.4c0,0,0,0,0,0h10.6c0.2,0,0.3,0.1,0.3,0.3
				C-635.9-690.2-636.1-690-636.3-690C-636.3-690-636.3-690-636.3-690z"/>
			<path class="st2" d="M-636.2-690h-10.7l0.3-1.9h10.1L-636.2-690z"/>
			<path class="st2" d="M-643.6-691h-2.4c-0.1,0-0.3-0.1-0.2-0.3l0.1-1.5c0-0.1,0.1-0.2,0.2-0.2h1.8c0.1,0,0.2,0.1,0.2,0.2l0.4,1.5
				C-643.4-691.2-643.4-691-643.6-691C-643.6-691-643.6-691-643.6-691z"/>
		</g>
	</g>
	<g transform="translate(663.0 864.0) rotate(0.0 768.0 985.5) scale(3.0095635936854026 3.005374909465177)">
		<path class="st0" d="M-125.3-187.3l-5.7-21.9c-0.6-2.1-2.1-3.8-4.2-4.5l-13-4l-6.5,0.9l-4.4-0.9l-13,4c-2,0.6-3.6,2.3-4.2,4.5
			l-5.7,21.9c-0.6,2.1,0.3,4.4,2.1,5.5c4.4,2.9,12.5,8.3,14.6,9.9c2.2,1.6,7.3,2.7,10,3.2c1.1,0.2,1.8,0.3,1.8,0.3l0-0.5
			c3.1-0.4,9.3-1.3,11.5-3c2.2-1.6,10.2-6.9,14.6-9.9C-125.6-182.9-124.7-185.2-125.3-187.3L-125.3-187.3z"/>
		<path class="st0" d="M-167.8-213.8l0.6-3.5c0.4-2.6,2.6-4.4,5-4.2l1.2-1.3c2-2,4.6-3.2,7.3-3.2c3,0,5.8,1.3,7.8,3.7l0.7,0.8
			l1.3,0.1c2.3,0.2,4.1,2.2,4.3,4.7l0.3,4.2L-167.8-213.8z"/>
		<path class="st2" d="M-129-181.5l-0.1,0.9l-7.8,5.2l-0.9-1l-3.5-3.8l6.4-5.8c0.3-0.3,0.8-0.5,1.3-0.5h0.2c2.4,0,4.2,1.9,4.4,4.3
			C-129-182-129-181.8-129-181.5L-129-181.5z M-145.6-216.8l-8,9.6l-7.2-8.5l-0.6-0.8l3.3-1.4h9.3L-145.6-216.8z"/>
		<path class="st2" d="M-148.8-223.2v8.7h-9.6l0.1-8.7H-148.8z"/>
		<path class="st1" d="M-149.3-222c-0.1,0.1-0.9,2.5-3.3,4c-1.7,1.1-3.8,1.6-5.8,1.9c-1,0.2-1.9,0.2-2.4,0.3l-0.9-1l3.3-1.1v-5.2
			h8.5L-149.3-222z"/>
		<path class="st2" d="M-146-232.7l0.8-0.7c0.3-0.3,0.7-0.2,0.9,0.1c0.1,0.1,0.1,0.2,0.1,0.2c0.2,0.7,0.2,1.4,0,2.1l-0.8,2.5
			c-0.2,0.6-0.8,0.9-1.4,0.6l-0.5-0.2L-146-232.7z"/>
		<path class="st1" d="M-161.2-232.7l-0.8-0.7c-0.3-0.3-0.7-0.2-0.9,0.1c-0.1,0.1-0.1,0.2-0.1,0.2c-0.2,0.7-0.2,1.4,0,2.1l0.8,2.5
			c0.2,0.6,0.8,0.9,1.4,0.6l0.5-0.2L-161.2-232.7z"/>
		<path class="st2" d="M-145.5-235l-0.5,4.3l-0.5,4.5c-0.1,0.5-0.3,1.1-0.6,1.5l-3,3.6c-0.7,0.9-1.8,1.4-3,1.4h-1.1
			c-1.1,0-2.2-0.5-3-1.4l-3-3.6c-0.3-0.4-0.6-0.9-0.6-1.5l-0.4-3.3c0.1-1.7-0.2-3.6-0.6-5.5c0,0,0.4-2.4,1.3-4.4
			c0.3-0.6,0.7-1.2,1.1-1.6c1.8-1.9,5.7-2,5.7-2s0.3,0,0.7,0.1c1.2,0.1,3.7,0.6,5,2C-146.1-239.1-145.5-235-145.5-235L-145.5-235z"
			/>
		<path class="st1" d="M-145.5-235l-0.5,4.3c0,0-2.3-1-3-1.2c-0.1-0.3-0.4-2.1-0.4-2.1l-0.8,2.1c0,0-7,0.3-8.9,1.2
			c-0.7,0.3-1.5,0.8-2.2,1.2l-0.6-5.5c0,0,0.4-2.4,1.3-4.4c2.4-1.2,5.8-2.9,7.5-3.6c1.2,0.1,3.7,0.6,5,2
			C-146.1-239.1-145.5-235-145.5-235L-145.5-235z"/>
		<g>
			<path class="st0" d="M-151.5-231.7c0.9,0,0.9,0.2,1.9,0.2c0.9-0.1,1.9-0.9,2.4,0.1c-0.7-0.1-1.2,0.1-1.7,0.3
				c-0.6,0.2-1.1,0.2-1.6-0.1C-151.1-231.5-151.5-231.7-151.5-231.7L-151.5-231.7z"/>
			<ellipse class="st0" cx="-149.7" cy="-231" rx="0.8" ry="0.5"/>
			<path class="st0" d="M-153.2-226.7h0.5c0,0,0.1-0.5-0.1-0.5C-153-227.1-153.2-226.7-153.2-226.7z M-155.7-231.7
				c-0.9,0-1,0.2-1.9,0.2c-0.9-0.1-1.8-0.9-2.3,0.1c0.7-0.1,1.2,0.1,1.7,0.3c0.6,0.2,1.1,0.2,1.6-0.1
				C-156.3-231.4-156-231.5-155.7-231.7L-155.7-231.7z"/>
			<ellipse class="st0" cx="-157.5" cy="-231" rx="0.8" ry="0.5"/>
			<path class="st0" d="M-154-226.7h-0.5c0,0-0.1-0.5,0.1-0.5C-154.2-227.1-154-226.7-154-226.7z M-150.9-224.9l-0.5,0.2l-0.5-0.1
				c-0.2,0-0.3-0.1-0.4-0.2l-0.3-0.2c-0.1-0.1-0.2-0.1-0.3,0l-0.7,0.3l-0.7-0.3c-0.1,0-0.2,0-0.3,0l-0.3,0.2
				c-0.1,0.1-0.3,0.2-0.4,0.2l-0.5,0.1l-0.5-0.2c0,0-0.1,0-0.1,0c0,0,0,0,0,0.1l0.2,0.3c0,0.1,0.1,0.1,0.2,0.1l1.9-0.1l0.2,0.1
				c0.1,0.1,0.3,0.1,0.4,0l0.2-0.1l1.9,0.1c0.1,0,0.1,0,0.2-0.1l0.2-0.3C-150.8-224.8-150.8-224.9-150.9-224.9
				C-150.9-224.9-150.9-224.9-150.9-224.9L-150.9-224.9z M-154.8-223.6c0.8,0.3,1.6,0.3,2.3,0c0,0-0.6,0.4-1.3,0.4
				C-154.2-223.2-154.8-223.6-154.8-223.6z M-162.2-234.3c0,0,1.5,0.6,5.7,0.8c4.1,0.2,6.4,0,6.4,0l0.3-5.4l1.4,5.3
				c0,0,2.6-0.3,3.5-0.5c0,0,0.6-10.6-9.1-10.6C-163-244.6-162.2-234.3-162.2-234.3z"/>
			<path class="st0" d="M-161.2-234l-0.3,1l-0.5-1.8c0,0,1-0.4,1-0.2C-161-234.9-161.2-234-161.2-234L-161.2-234z M-146.1-234
				c0,0.2,0.4,1,0.4,1l0.3-1.4l-0.5-0.2L-146.1-234z M-149.9-246.3c0,2.5-1.8,4.5-4.1,4.5c-2.3,0-4.1-2-4.1-4.5
				c0-2.5,1.8-4.7,4.1-4.7C-151.7-251-149.9-248.7-149.9-246.3z"/>
			<path class="st0" d="M-150.6-243.5l-0.2-0.2c1.2-1,2.2-2.7,1.3-4.4c-0.9-1.6-0.5-2.7-0.5-2.7l0.3,0.1c0,0-0.3,1,0.5,2.5
				C-148.2-246.5-149.3-244.6-150.6-243.5z"/>
		</g>
		<path class="st2" d="M-166.4-180.6l-3.5,3.8l-0.9,1l-7.8-5.2l-0.1-0.9c0-0.2,0-0.4,0-0.6c0.1-2.4,2-4.4,4.4-4.4h0.2
			c0.5,0,0.9,0.2,1.3,0.5L-166.4-180.6z"/>
		<path class="st0" d="M-160.8-217.1l7.3,8.8l7.4-8.7l0.7-0.6c0,0,1.7,3.6,1.2,4.3c-0.5,0.7-8.6,7.3-8.7,7.4
			c-0.1,0.1-8.5-5.3-8.5-5.5c0-0.2-1.8-5.7-1.8-5.7l2.3-0.8L-160.8-217.1z M-179-182.7c1.4,1.3,5.9,4.4,9.1,6.3l-0.9,0.7l-7.8-5.2
			l-0.4-1.1C-179-182.2-179-182.5-179-182.7z M-128.6-181.6l-0.5,1l-7.8,5.2l-0.9-1c3.5-1.5,7.7-4.5,9.4-6.3
			C-128.4-182.5-128.6-181.9-128.6-181.6z"/>
		<path class="st2" d="M-157.9-204.4l-0.3-0.1c0.3-0.6,0.1-0.9-0.3-1.4c-0.3-0.5-0.8-1.1-0.8-2.3c0-0.5,0.2-1,0.5-1.5
			c0.3-0.8,0.7-1.5,0.2-2.3l0.2-0.2c0.6,0.9,0.2,1.8-0.2,2.6c-0.2,0.5-0.4,0.9-0.4,1.4c0,1.1,0.4,1.6,0.7,2.1
			C-157.8-205.6-157.5-205.1-157.9-204.4z M-149.4-204.8l-0.2-0.2c1.2-1.9,0.9-2.5,0.5-3.4c-0.3-0.7-0.7-1.5-0.3-3.3l0.3,0.1
			c-0.4,1.7-0.1,2.4,0.3,3.1C-148.5-207.6-148.2-206.9-149.4-204.8L-149.4-204.8z"/>
		<path class="st1" d="M-135.1-175.4h-36.4v-21.6c0-1.6,1.3-3,2.8-3h30.7c1.6,0,2.8,1.3,2.8,3V-175.4z"/>
		<ellipse class="st2" cx="-153.3" cy="-187.7" rx="10.3" ry="10.7"/>
		<ellipse class="st1" cx="-152.5" cy="-187.3" rx="10.3" ry="10.7"/>
		<path class="st1" d="M-160.7-152.3c-3.3,0.5-11.8-0.2-14.8-0.4s-3.9-1.9-4.4-3.6c-0.5-1.7,1.9-7.6,1.9-7.6l2.4-0.8
			c1.5-0.5,2.9-0.3,4.4,0c0.7,0.1,1.5,0.5,1.5,0.5l1.7-0.2c0,0,9.6-0.6,9.6,3S-160.7-152.3-160.7-152.3z"/>
		<path class="st0" d="M-176.7-152.9l-3.3-0.2c-0.7,0-1.4-0.6-1.6-1.3c-0.3-1.3-0.7-3.5-0.4-5.8c0.4-2.1,1.5-3.6,2.4-4.5
			c0.5-0.5,1.1-0.7,1.8-0.7l4,0.2c0,0-3.7,2.1-4.1,5.6C-178.3-155.3-176.7-152.9-176.7-152.9z M-167.8-154.8l-0.6-0.1
			c0.3-2.1,0.4-3.7,0.1-5.3l0.6-0.1C-167.4-158.7-167.4-157-167.8-154.8z M-165.1-154.3l-0.6-0.1c0.3-2,0.4-4,0.2-6.2l0.6-0.1
			C-164.7-158.4-164.7-156.3-165.1-154.3z"/>
		<path class="st0" d="M-169-155l8.1,1.8l-0.3-0.7L-169-155z"/>
		<path class="st2" d="M-117.5-175.5c-0.3,1.9-1.4,3.6-2.9,4.7c-3.7,2.8-11,8.2-16.1,10.7c-4.5,2.2-10.5,4.6-16.3,6.1
			c-1.7,0.5-3.3,0.5-4.9,1.1c-1.5,0.3-3,0.5-4.3,0.6c0-0.9-0.1-1.8-0.2-2.8c0,0,0,0,0,0h0c-0.1-0.7-0.2-1.5-0.4-2.3
			c-0.7-2.9-2.5-5.6-7.2-7c0.6-0.6,2-1.5,3.2-2c1.7-0.7,3.1-0.9,4.8-1c0.8,0,3,0,3,0l3.5-2.2c0.2-0.1,0.3-0.2,0.5-0.2
			c0.5-0.2,1-0.3,1.5-0.3l1.4,0l1,0l1.3,0c0,0,9.1-3.7,13.5-6.4c1.7-1,3.4-2,4.8-2.9c2.5-1.6,5.4-2.5,8.3-2.6c0.1,0,0.2,0,0.2,0
			C-119.4-182-116.9-178.9-117.5-175.5z"/>
		<path class="st0" d="M-139.8-162.7c-2.2-0.1-4.6-0.3-4.6-0.2c-0.1,0.1-8.6-4.6-8.6-4.6l-1.7-2.1c0.1-0.3,0.9-0.5,1.4-0.5l1.3-0.1
			c0.6,0.5,1.2,1.3,1.5,1.7c0.2,0.3,0.5,0.5,0.9,0.5c1.1,0.1,3.5,0.3,5.5,1C-142.5-166.3-140.7-164.1-139.8-162.7L-139.8-162.7z"/>
		<path class="st1" d="M-136.4-162.5c-0.3,0.1-2.7,0.8-2.7,0.8s-0.3-0.4-0.7-1C-138.1-162.6-136.6-162.5-136.4-162.5z M-136.4-162.6
			C-136.4-162.6-136.4-162.6-136.4-162.6C-136.4-162.6-136.4-162.5-136.4-162.6C-136.4-162.6-136.4-162.6-136.4-162.6L-136.4-162.6z
			"/>
		<path class="st1" d="M-149.9-151.9c3.3,0.7,11.7,0.5,14.8,0.5c3,0,4-1.7,4.6-3.3c0.6-1.7-1.4-7.7-1.4-7.7l-2.3-1
			c-1.4-0.6-2.8-0.5-4.4-0.3c-0.7,0.1-1.5,0.4-1.5,0.4l-1.7-0.3c0,0-9.6-1.2-9.8,2.4C-152-157.5-149.9-151.9-149.9-151.9
			L-149.9-151.9z"/>
		<path class="st0" d="M-134-151.5h3.3c0.7,0,1.4-0.5,1.6-1.2c0.4-1.3,0.9-3.5,0.7-5.8c-0.2-2.1-1.3-3.7-2.1-4.6
			c-0.4-0.5-1.1-0.8-1.7-0.8l-4,0.1c0,0,3.6,2.2,3.8,5.8C-132.2-153.8-134-151.5-134-151.5L-134-151.5z M-149.6-154
			c0.1,0.1,7.8-0.2,7.8-0.2l-8.4-0.5L-149.6-154z M-152.2-154.3c0,0-0.2,0.2-0.5,0.4c-1.7,0.5-3.3,0.8-4.9,1.1l-4.5-2.2c0,0,0,0,0,0
			h0c-0.1-0.7-0.2-1.5-0.4-2.3l2.3-0.4C-160.2-157.7-152.1-154.5-152.2-154.3L-152.2-154.3z"/>
		<path class="st0" d="M-144-154.1c-0.3-1.7,0-3.6,0.4-5.3l0.6,0.1c-0.3,1.7-0.6,3.5-0.3,5.1L-144-154.1z M-146.4-154.3
			c-0.2-1.8,0-3.7,0.6-5.7l0.6,0.2c-0.6,1.9-0.8,3.7-0.6,5.4L-146.4-154.3z"/>
		<path class="st0" d="M-147.4-160.4c0.1,0,5.9,1.5,5.9,1.5l-6.8-1.3L-147.4-160.4z"/>
		<path class="st2" d="M-191.7-177.7c0.2,1.9,1.2,3.7,2.6,4.9c3.5,3,10.5,8.9,15.4,11.7c6.8,3.9,17.3,8.4,25,9.4
			c0.4-4.2,0.9-9.7,8.4-11.5c-0.6-0.6-1.9-1.6-3.1-2.2c-1.7-0.8-3.1-1.1-4.8-1.3c-0.8-0.1-3-0.1-3-0.1l-1.5-1.5
			c-0.9-0.9-2-1.4-3.3-1.5l-4.1-0.3c0,0-8.9-4.3-13.2-7.2c-1.7-1.1-3.3-2.3-4.6-3.2c-2.4-1.7-5.2-2.8-8.2-3.1
			C-189.3-184.2-192.1-181.2-191.7-177.7L-191.7-177.7z"/>
	</g>
</g>
</svg>
