<?xml version="1.0" encoding="utf-8"?>
<!-- Generator: Adobe Illustrator 27.0.0, SVG Export Plug-In . SVG Version: 6.00 Build 0)  -->
<svg version="1.1" id="Layer_1" xmlns="http://www.w3.org/2000/svg" xmlns:xlink="http://www.w3.org/1999/xlink" x="0px" y="0px"
	 viewBox="0 0 377.3 393.3" style="enable-background:new 0 0 377.3 393.3;" xml:space="preserve">
<style type="text/css">
	.st0{fill:#000066;}
	.st1{fill:#3366FF;}
	.st2{fill:#FFFFFF;}
</style>
<g>
	<g transform="translate(59.0 421.0) rotate(0.0 40.0 37.5) scale(0.08 0.075)">
		<path class="st0" d="M-326.5-3492.1h-266.9c-10.3,0-18.6,8.8-18.6,19.6v124.2l6.4,9.3v248.9c0,10.8,1.9,19.6,12.2,19.6h130
			l9.9,6.8h126.9c10.3,0,18.6-8.8,18.6-19.6v-389.1C-307.8-3483.3-316.2-3492.1-326.5-3492.1z"/>
		<path class="st0" d="M-584.6-3170.4c-3.7,0-7.4-1.4-10.5-4.1l-93.8-85.2c-30.9-28.1-48.7-68.9-48.7-111.9v-57.9
			c0-34.6,26.7-62.7,59.6-62.7h87.1c8.9,0,16,7.5,16,16.9c0,9.3-7.2,16.9-16,16.9h-87.1c-15.2,0-27.5,13-27.5,28.9v57.9
			c0,33.2,13.7,64.7,37.6,86.3l93.8,85.2c6.7,6.1,7.4,16.8,1.7,23.8C-575.6-3172.3-580.1-3170.4-584.6-3170.4z"/>
		<path class="st1" d="M-612-3289v-64.6c0-28.3,6-54.9,32.7-51.3c16.9,2.3,36.7,15.6,55,53c9.8,20.1,23.8,34.5,46.3,142.3
			c16.5,79.3,24.6,146,24.6,146H-596c-8.9,0-16-7.5-16-16.9V-3189l6.4-7.6v-54.1l-6.4-20.3V-3289z"/>
		<path class="st0" d="M-612-3273.3l19.9,31.5l10.6,19.4c2.7,5,3.4,11,1.8,16.5l-1.1,3.9c-3.1,11-14.1,17.4-24.7,14.3l-6.6-1.9
			V-3273.3z"/>
	</g>
	<g transform="translate(59.0 496.0) rotate(0.0 425.0 9.5) scale(0.9996401295533608 0.95)">
		<path class="st0" d="M-59-319.9h365.4v9H-59V-319.9z"/>
	</g>
	<g transform="translate(152.0 71.0) rotate(0.0 163.5 182.5) scale(1.001436310794381 1.0026508440122515)">
		<path class="st2" d="M-109.7,91.5H16.4V64.4l9.9-6.7V-68.6h-136V91.5z"/>
		<g>
			<path class="st0" d="M16.4,93.7h-126.1c-1.2,0-2.1-1-2.1-2.3v-160c0-1.2,1-2.3,2.1-2.3h136c1.2,0,2.1,1,2.1,2.3V57.7
				c0,0.8-0.4,1.5-1,1.9l-8.9,6.1v25.8C18.5,92.7,17.6,93.7,16.4,93.7z M-107.6,89.2H14.2V64.4c0-0.8,0.4-1.5,1-1.9l8.9-6.1V-66.3
				h-131.7V89.2z"/>
			<path class="st0" d="M5.8-40.7H4.6c-0.4,0-0.6-0.3-0.6-0.7c0-0.4,0.3-0.7,0.6-0.7h1.3c0.4,0,0.6,0.3,0.6,0.7
				C6.5-41,6.2-40.7,5.8-40.7z M-0.6-40.7h-5.2c-0.4,0-0.6-0.3-0.6-0.7c0-0.4,0.3-0.7,0.6-0.7h5.2c0.4,0,0.6,0.3,0.6,0.7
				C0-41-0.2-40.7-0.6-40.7z M-10.9-40.7h-5.2c-0.4,0-0.6-0.3-0.6-0.7c0-0.4,0.3-0.7,0.6-0.7h5.2c0.4,0,0.6,0.3,0.6,0.7
				C-10.3-41-10.6-40.7-10.9-40.7L-10.9-40.7z M-21.2-40.7h-5.2c-0.4,0-0.6-0.3-0.6-0.7c0-0.4,0.3-0.7,0.6-0.7h5.2
				c0.4,0,0.6,0.3,0.6,0.7C-20.6-41-20.9-40.7-21.2-40.7z M-31.5-40.7h-5.2c-0.4,0-0.6-0.3-0.6-0.7c0-0.4,0.3-0.7,0.6-0.7h5.2
				c0.4,0,0.6,0.3,0.6,0.7C-30.9-41-31.2-40.7-31.5-40.7z M-41.8-40.7H-47c-0.4,0-0.6-0.3-0.6-0.7c0-0.4,0.3-0.7,0.6-0.7h5.2
				c0.4,0,0.6,0.3,0.6,0.7C-41.2-41-41.5-40.7-41.8-40.7z M-52.2-40.7h-5.2c-0.4,0-0.6-0.3-0.6-0.7c0-0.4,0.3-0.7,0.6-0.7h5.2
				c0.4,0,0.6,0.3,0.6,0.7C-51.5-41-51.8-40.7-52.2-40.7z M-62.5-40.7h-5.2c-0.4,0-0.6-0.3-0.6-0.7c0-0.4,0.3-0.7,0.6-0.7h5.2
				c0.4,0,0.6,0.3,0.6,0.7C-61.8-41-62.1-40.7-62.5-40.7z M-72.8-40.7h-5.2c-0.4,0-0.6-0.3-0.6-0.7c0-0.4,0.3-0.7,0.6-0.7h5.2
				c0.4,0,0.6,0.3,0.6,0.7C-72.1-41-72.4-40.7-72.8-40.7z M-83.1-40.7h-5.2c-0.4,0-0.6-0.3-0.6-0.7c0-0.4,0.3-0.7,0.6-0.7h5.2
				c0.4,0,0.6,0.3,0.6,0.7C-82.4-41-82.7-40.7-83.1-40.7z M5.8,7.1H4.6c-0.4,0-0.6-0.3-0.6-0.7s0.3-0.7,0.6-0.7h1.3
				c0.4,0,0.6,0.3,0.6,0.7S6.2,7.1,5.8,7.1z M-0.6,7.1h-5.2c-0.4,0-0.6-0.3-0.6-0.7s0.3-0.7,0.6-0.7h5.2C-0.2,5.7,0,6,0,6.4
				S-0.2,7.1-0.6,7.1z M-10.9,7.1h-5.2c-0.4,0-0.6-0.3-0.6-0.7s0.3-0.7,0.6-0.7h5.2c0.4,0,0.6,0.3,0.6,0.7S-10.6,7.1-10.9,7.1
				L-10.9,7.1z M-21.2,7.1h-5.2c-0.4,0-0.6-0.3-0.6-0.7s0.3-0.7,0.6-0.7h5.2c0.4,0,0.6,0.3,0.6,0.7S-20.9,7.1-21.2,7.1z M-31.5,7.1
				h-5.2c-0.4,0-0.6-0.3-0.6-0.7s0.3-0.7,0.6-0.7h5.2c0.4,0,0.6,0.3,0.6,0.7S-31.2,7.1-31.5,7.1z M-41.8,7.1H-47
				c-0.4,0-0.6-0.3-0.6-0.7s0.3-0.7,0.6-0.7h5.2c0.4,0,0.6,0.3,0.6,0.7S-41.5,7.1-41.8,7.1z M-52.2,7.1h-5.2c-0.4,0-0.6-0.3-0.6-0.7
				s0.3-0.7,0.6-0.7h5.2c0.4,0,0.6,0.3,0.6,0.7S-51.8,7.1-52.2,7.1z M-62.5,7.1h-5.2c-0.4,0-0.6-0.3-0.6-0.7s0.3-0.7,0.6-0.7h5.2
				c0.4,0,0.6,0.3,0.6,0.7S-62.1,7.1-62.5,7.1z M-72.8,7.1h-5.2c-0.4,0-0.6-0.3-0.6-0.7s0.3-0.7,0.6-0.7h5.2c0.4,0,0.6,0.3,0.6,0.7
				S-72.4,7.1-72.8,7.1z M-83.1,7.1h-5.2c-0.4,0-0.6-0.3-0.6-0.7s0.3-0.7,0.6-0.7h5.2c0.4,0,0.6,0.3,0.6,0.7S-82.7,7.1-83.1,7.1z
				 M5.8,54.9H4.6c-0.4,0-0.6-0.3-0.6-0.7c0-0.4,0.3-0.7,0.6-0.7h1.3c0.4,0,0.6,0.3,0.6,0.7C6.5,54.6,6.2,54.9,5.8,54.9z M-0.6,54.9
				h-5.2c-0.4,0-0.6-0.3-0.6-0.7c0-0.4,0.3-0.7,0.6-0.7h5.2c0.4,0,0.6,0.3,0.6,0.7C0,54.6-0.2,54.9-0.6,54.9z M-10.9,54.9h-5.2
				c-0.4,0-0.6-0.3-0.6-0.7c0-0.4,0.3-0.7,0.6-0.7h5.2c0.4,0,0.6,0.3,0.6,0.7C-10.3,54.6-10.6,54.9-10.9,54.9L-10.9,54.9z
				 M-21.2,54.9h-5.2c-0.4,0-0.6-0.3-0.6-0.7c0-0.4,0.3-0.7,0.6-0.7h5.2c0.4,0,0.6,0.3,0.6,0.7C-20.6,54.6-20.9,54.9-21.2,54.9z
				 M-31.5,54.9h-5.2c-0.4,0-0.6-0.3-0.6-0.7c0-0.4,0.3-0.7,0.6-0.7h5.2c0.4,0,0.6,0.3,0.6,0.7C-30.9,54.6-31.2,54.9-31.5,54.9z
				 M-41.8,54.9H-47c-0.4,0-0.6-0.3-0.6-0.7c0-0.4,0.3-0.7,0.6-0.7h5.2c0.4,0,0.6,0.3,0.6,0.7C-41.2,54.6-41.5,54.9-41.8,54.9z
				 M-52.2,54.9h-5.2c-0.4,0-0.6-0.3-0.6-0.7c0-0.4,0.3-0.7,0.6-0.7h5.2c0.4,0,0.6,0.3,0.6,0.7C-51.5,54.6-51.8,54.9-52.2,54.9z
				 M-62.5,54.9h-5.2c-0.4,0-0.6-0.3-0.6-0.7c0-0.4,0.3-0.7,0.6-0.7h5.2c0.4,0,0.6,0.3,0.6,0.7C-61.8,54.6-62.1,54.9-62.5,54.9z
				 M-72.8,54.9h-5.2c-0.4,0-0.6-0.3-0.6-0.7c0-0.4,0.3-0.7,0.6-0.7h5.2c0.4,0,0.6,0.3,0.6,0.7C-72.1,54.6-72.4,54.9-72.8,54.9z
				 M-83.1,54.9h-5.2c-0.4,0-0.6-0.3-0.6-0.7c0-0.4,0.3-0.7,0.6-0.7h5.2c0.4,0,0.6,0.3,0.6,0.7C-82.4,54.6-82.7,54.9-83.1,54.9z"/>
		</g>
	</g>
	<g transform="translate(501.0 71.0) rotate(0.0 171.0 96.0) scale(1.0028413839211099 1.0051566630892863)">
		<path class="st0" d="M-308.1-68.4h142.2v81.8h-142.2V-68.4z"/>
		<path class="st0" d="M-165.8,15.7h-142.2c-1.2,0-2.1-1-2.1-2.3v-81.8c0-1.2,1-2.3,2.1-2.3h142.2c1.2,0,2.1,1,2.1,2.3v81.8
			C-163.7,14.7-164.6,15.7-165.8,15.7z M-305.9,11.2H-168v-77.3h-137.9V11.2z"/>
		<path class="st2" d="M-187.6-2.1h-10.1c-0.4,0-0.6-0.3-0.6-0.7v-51.5c0-0.4,0.3-0.7,0.6-0.7h10.1c0.4,0,0.6,0.3,0.6,0.7v51.5
			C-187-2.4-187.3-2.1-187.6-2.1z M-197.1-3.5h8.8v-50.2h-8.8V-3.5z"/>
		<g>
			<path class="st1" d="M-207.9-2.1H-218c-0.4,0-0.6-0.3-0.6-0.7v-44.8c0-0.4,0.3-0.7,0.6-0.7h10.1c0.4,0,0.6,0.3,0.6,0.7v44.8
				C-207.2-2.4-207.5-2.1-207.9-2.1z M-217.3-3.5h8.8v-43.4h-8.8V-3.5z M-228.1-2.1h-10.1c-0.4,0-0.6-0.3-0.6-0.7v-28.5
				c0-0.4,0.3-0.7,0.6-0.7h10.1c0.4,0,0.6,0.3,0.6,0.7v28.5C-227.4-2.4-227.7-2.1-228.1-2.1z M-237.6-3.5h8.8v-27.1h-8.8V-3.5z
				 M-248.3-2.1h-10.1c-0.4,0-0.6-0.3-0.6-0.7v-32.8c0-0.4,0.3-0.7,0.6-0.7h10.1c0.4,0,0.6,0.3,0.6,0.7v32.8
				C-247.7-2.4-248-2.1-248.3-2.1z M-257.8-3.5h8.8v-31.4h-8.8V-3.5z M-270.3-2.1h-10.1c-0.4,0-0.6-0.3-0.6-0.7v-16.7
				c0-0.4,0.3-0.7,0.6-0.7h10.1c0.4,0,0.6,0.3,0.6,0.7v16.7C-269.6-2.4-269.9-2.1-270.3-2.1z M-279.7-3.5h8.8v-15.4h-8.8V-3.5z"/>
		</g>
	</g>
	<g transform="translate(501.0 281.0) rotate(0.0 171.0 81.0) scale(1.0028413839211099 1.0061174424743038)">
		<path class="st2" d="M-308.1-182.7h142.2v68.3h-142.2V-182.7z"/>
		<g>
			<path class="st1" d="M-165.8-112.2h-142.2c-1.2,0-2.1-1-2.1-2.3v-68.3c0-1.2,1-2.3,2.1-2.3h142.2c1.2,0,2.1,1,2.1,2.3v68.3
				C-163.7-113.2-164.6-112.2-165.8-112.2z M-305.9-116.7H-168v-63.7h-137.9V-116.7z"/>
			<path class="st1" d="M-291.2-135.9c-0.4,0-0.6-0.3-0.6-0.7c0-0.2,0.1-0.4,0.3-0.6l23.2-16.3c0.2-0.2,0.5-0.2,0.7,0l17.6,13.2
				l26.3-24.1c0.2-0.2,0.5-0.2,0.7-0.1l16.8,8.9l21.2-16c0.3-0.2,0.7-0.1,0.9,0.2c0.2,0.3,0.1,0.7-0.1,0.9l-21.5,16.3
				c-0.2,0.1-0.5,0.2-0.7,0.1l-16.8-8.8l-26.3,24.1c-0.2,0.2-0.6,0.2-0.8,0L-268-152l-22.8,16C-290.9-135.9-291-135.9-291.2-135.9z"
				/>
		</g>
	</g>
	<g transform="translate(132.0 113.0) rotate(0.0 402.5 414.0) scale(0.9981673399646365 0.997916187092412)">
		<path class="st2" d="M195.7,240l5.4,15.1l16,14H167l-0.6-25.8L195.7,240z M73.5-54l-0.8-9.5l6.7,0.7l-0.9,9.5L73.5-54z"/>
		
			<ellipse transform="matrix(0.8479 -0.5301 0.5301 0.8479 -71.9378 97.5857)" class="st0" cx="134.1" cy="174.2" rx="20.6" ry="12.7"/>
		<path class="st0" d="M55.6,99l60-47.9c8.5-6.8,17.9-12.3,27.9-16.4l9.2-3.7c3.3-1.3,6.9-1.1,10,0.6l5.7,3.2
			c4.7,2.6,7.2,8.1,6.2,13.6l-3.3,17.3l-66.6,71.6L55.6,99z"/>
		<path class="st1" d="M-17.9-14l-33.7,7.5l-5.8,23.1l40.6,4.7L-17.9-14z"/>
		<path class="st0" d="M19.7,123.7l0.9,26.9l48.4,8l76.5-9.5l34.5-31.4l-1.4-8.7c-0.9-5.3-4.7-9.4-9.7-10.5L85.7,80.4l-1.4-1.7
			l-24.3-4L13.1,112L19.7,123.7z"/>
		<path class="st1" d="M-25.4-1.5C-27.1-2.2-53.2,12.4-63,17.9c-2.4,1.3-4.2,3.6-5.1,6.2c-3.2,9.5-10.6,32-9.6,30.4
			C-76.3,52.5,47.1,22,47.1,22L51-1.7l-16.5-9.5c-2.2-1.3-4.8-1.7-7.2-1.2L-25.4-1.5z"/>
		<path d="M-7.8-60.6c-0.7,0.7-1.7,0.5-2.5,0.3c-0.9-0.2-1.8-0.5-2.8-0.5c-2-0.2-4.3-0.4-6.2,0.4c-1.6,0.7-3.1,1.9-4.6,3
			c-1.6,1.2-2.8,2.6-3.9,4.2c-1.1,1.7-2,3.5-2.3,5.6c-0.2,2.1-0.2,4.5,0.8,6.4c0.9,1.7,2.4,3.1,2.9,5.1c0.4,1.6-0.1,3.3,0.7,4.8
			c0.9,1.8,3.1,1.9,4.8,1.5c1.1-0.2,2.1-0.6,3.1-0.9c1-0.2,2-0.2,3-0.3c1.1-0.2,2.2-0.5,3.3-0.6c0.9-0.1,1.8-0.1,2.6,0.4
			c1.5,1,2.5,2.8,3.3,4.3c0.5,0.8,0.9,1.7,1.2,2.6c0.3,0.9,0.6,1.9,0.4,2.8c-0.4,1.8-2.7,1.8-4.1,1.8c-1.7-0.1-3.4-0.3-5.2-0.2
			c-2.1,0.1-4.2,0.3-6.3,0.4c-1.9,0-4-0.1-5.8-0.9c-1.7-0.8-3.1-2.3-3.9-4.1c-0.7-1.7-0.8-3.5-1.4-5.2c-0.2-0.7-0.5-1.5-0.7-2.2
			c-0.2-0.6-0.4-1.4-0.3-2c0.1-0.6,0.5-0.8,1.1-0.9c0.8-0.1,0.5-1.4-0.3-1.3c-3.8,0.6-1.2,5.7-0.7,7.9c0.4,1.9,0.8,4,1.8,5.6
			c1.1,1.8,2.8,3.1,4.8,3.8c4.1,1.3,8.5,0.4,12.6,0.3c1.8,0,3.5,0.3,5.3,0.2c1.7-0.1,3.7-0.7,4.2-2.7c0.5-2-0.5-4.2-1.4-5.8
			c-0.9-1.7-1.8-3.5-3.2-4.7C-8-32.5-8.8-33-9.8-33.2c-1-0.1-2.1,0.1-3.1,0.3c-1.1,0.2-2.2,0.5-3.3,0.5c-1.1,0-2.2,0.3-3.2,0.7
			c-1.4,0.4-4.1,1.4-5-0.4c-0.3-0.7-0.3-1.5-0.3-2.2c0-1-0.1-1.9-0.4-2.9c-0.7-1.9-2.2-3.3-3-5.1c-0.4-1-0.5-2-0.5-3.1
			c0-1.2,0-2.5,0.3-3.7c0.6-2,1.9-3.9,3.2-5.4c1.2-1.4,2.8-2.5,4.3-3.5c0.7-0.5,1.4-1,2.2-1.3c1-0.4,2.2-0.4,3.3-0.4
			c1,0,2.1,0.1,3.1,0.2c1,0.1,1.9,0.5,2.9,0.7c1,0.1,1.9-0.1,2.6-0.8C-6.3-60.3-7.2-61.3-7.8-60.6L-7.8-60.6z"/>
		<path d="M-4.1-51.8c0.2-0.9,0.5-1.7,0.8-2.5c0.1-0.3-0.1-0.7-0.5-0.8c-1.3-0.4-2.5-0.2-3.8-0.1c-1.3,0.1-2.3-0.1-3.5-0.5
			c-1-0.4-1.9-0.9-3-1c-1-0.1-2,0.1-2.9,0.4c-1.4,0.5-2.6,1.5-3.3,3c-0.6,1.4-0.7,3-0.8,4.5c0,1.8,0,3.7,0.2,5.4
			c0.2,1.7,0.8,3.6,2.1,4.7c3.1,2.6,6.8-0.9,8.3-3.7c0.9-1.8,1.7-3.8,3.7-4.6c1.1-0.4,2.4-0.4,3.5-0.3c1.2,0.1,2.4,0.2,3.6,0.2
			c0.8,0,0.8-1.4,0-1.4c-2,0-4-0.4-6-0.2c-1.8,0.2-3.3,1.1-4.4,2.7c-1,1.4-1.5,3.1-2.5,4.4c-1,1.2-2.5,2.6-4.1,2.4
			c-1.3-0.2-2.2-1.5-2.6-2.7c-0.5-1.7-0.5-3.5-0.5-5.2c-0.1-2.5-0.2-6,2.2-7.5c0.8-0.5,1.7-0.7,2.6-0.7c1.1-0.1,2.1,0.4,3.2,0.9
			c1.2,0.5,2.3,0.8,3.6,0.8c1.3,0,2.7-0.4,4,0l-0.5-0.8c-0.3,0.8-0.6,1.7-0.8,2.5C-5.6-51.4-4.3-51-4.1-51.8L-4.1-51.8z"/>
		<path class="st0" d="M-11-69c-6.1-3.9-13.2-2.4-18.8-2.2c-8.3,0.3-17.4,2.4-20.9,11.5c-2,5.2-3.8,10.8-4.3,16.5
			c-0.5,5.9,2.3,11.4,5.2,16.2c2.6,4.4,7.1,8.1,11.4,10.4c2.3,1.2,6.6,2.2,8.3,0c1.6-1.9,2.7-5.4,3.5-7.8c2.1-6.3,4.6-12.1,7.7-18
			c3.2-6.1,5.7-12.2,7-19.1C-11.6-63.6-11.2-63-11-69L-11-69z"/>
		<path class="st2" d="M-37.1-22.9l6.7,27.4L2.1,16.4L3.2,4l-8.5-34.7L-37.1-22.9z"/>
		<path class="st0" d="M-13-70.2c8.7-1.9,12.6,0.5,14.7,9.9c1.5,6.9,3.2,14,4.3,21C1.5-38.1-3.3-37-7.8-36.2
			c-2.8-10.7-4.5-21.9-7-32.7C-14.5-68.3-13.4-70.8-13-70.2L-13-70.2z"/>
		<path class="st2" d="M10.2-36.7L2.3-46.7l-0.7-3.5L-9.8-67l-5.4-1.7l-9.5-1.6c-0.1,0-0.1,0.1-0.2,0.1c-2.5,1.3-5.2,1.9-7.7,3.3
			c0,0.6-0.2,1.2-0.8,1.7c-5.2,4-8.2,11.3-10.4,17.5c-1.3,3.7-2.3,7.6-1.9,11.6c0.3,3.3,1.2,6.5,1.7,9.7c1.9,0.7,4,0.5,5.9-0.3
			l10.7-5l7.9,12l5.1,8.5l19.6-0.4c3.9-0.2,6.1-4.8,3.9-8.2l-0.5-1.3L8-22.5L8.9-24l0-0.2c-0.2-1-1-1.6-2-2.1l0.3-0.4l1.1-1.5
			l-1.7-4.3l3.5-2.5c0.5-0.4,0.6-1.1,0.3-1.6C10.3-36.6,10.2-36.6,10.2-36.7z"/>
		<path class="st0" d="M4.5-32.5c-0.5-0.1-0.8-0.3-0.8-0.6c0-0.3,0.7-0.4,1.4-0.3c0.4,0,0.7,0.1,1,0.3L4.5-32.5z M4.9-22.4
			C5-21.9,6.6-21.4,7-21.5c0.8-0.3,1.6-1.9,1.6-1.9l-0.3,0c-0.4,0.1-1.1,0.3-1.2,0.3c-0.7,0.1-1.4,0.3-2,0.5
			c-0.2,0.1-0.3,0.1-0.3,0.1L4.9-22.4L4.9-22.4z M0.7-25.3l0.3,0.2c0.5,0.3,2.2,0.3,2.7,0.4c0.2,0,2.9-1.2,3-1.4
			c1.1-0.9,1.2-1.1,1.6-1.9l-0.2-0.5C7.6-28.1,7-27.9,6.4-28l-1.6-0.3c-0.2,0.1-0.4,0.2-0.6,0.3L0.7-25.3z"/>
		<path class="st2" d="M-10.4-66.7c1-0.5,1.9,0.7,2.8,1.1c1.5,0.6,2.8,0.9,4,1.8c1.9,1.5,3.4,2.9,4.2,5.4c0.6,1.8,1.9,4.7,2.3,6.6
			c0.5,2.5-1.4,2.9-2.2,5.1c-1.5-1.1-2.6-2.8-4.1-4.1c-1.5-1.3-3.1-2.8-4.3-4.5c-0.9-1.3-6.5-10.4-3.7-10.9"/>
		<path class="st1" d="M-3.3-63.8c-10.1-4.1-7.2,7.2-7.7,11.1c-0.7,5.1-3.2,10.1-6.5,12.7c-3.1,2.5-4.6,6.4-3.9,10.4
			c-3.1-1.4-5.2-8.9-6.8-12.1c-2.4-4.6-2.4-9.1-1-14.2c1.6-6,3.8-8.5,9.3-10.3c4.3-1.4,6.6-2.8,11-1.1C-9.2-67.2-6.6-65.8-3.3-63.8z
			"/>
		<path class="st0" d="M-3.6-66c-2.1-1.3-4.3-2.7-6.5-3.9c-0.1,0-0.2,0.1-0.3,0.1c-1.9,0.4-3.8,0.3-5.8-0.2
			c-1.8-0.5-3.7-1.3-5.5-1.4c-3.2-0.3-6.3,0.8-9,2.4c-6.1,3.5-11.1,8.6-14.3,15.1c-3.4,6.7-4.2,14.3-2.4,21.6
			c1.4,5.8-0.3,6.9,3.1,11.7c2.5,1.9,6.7,5.5,9.8,5.8c2.6-5.7,11.1-13.6,10.1-19.9c-1.4-8.6-1.6-7.7,3-13.1c5.3-6.1,0.2-7,1.5-12.8
			C-18.9-65.1-8.4-66.1-3.6-66L-3.6-66z"/>
		<path class="st2" d="M6.9-40.8l-4.8-6.1C2-47.1,1.6-47,1.7-46.7l0.2,2.8l1.5,3.2L6.9-40.8z"/>
		<path class="st1" d="M-0.4-10C-0.2-9.8,0.1-6.9,0-6.3c-0.6,4.2-10.6,4.9-14.1,2.5c-3.3-2.2-5.5-5.9-6.3-9.6
			c-0.6-2.8-1.2-6.1-2.6-10.8C-17.8-20-12.2-16.1-6-13.5c1,0.4,2.1,0.9,3.1,1.4C-2.4-11.8-0.7-10.2-0.4-10L-0.4-10z"/>
		<path class="st0" d="M7.1-32.5l-5.5,1.3c-2.6,0.6-4.9,2.1-6.8,4.1c-3.8,4.2-10.2,3.7-13.3-1.1l-7.4-11.6l-5.2,3.7l15.3,23.8
			c2,3.1,5.4,4.9,9,4.7L4.7-8.3c4.2-0.2,7.2-4.4,6.3-8.8l-0.1-0.4c-0.1-0.5-0.3-0.9-0.5-1.3l-1.7-2.6c-2.5,1.8-5.9,1.1-7.7-1.4
			L0.9-23c-1-1.9-0.1-4.2,1.8-4.9l4-1.4c0.8-0.3,1.2-1.1,0.9-2c0-0.1-0.1-0.2-0.1-0.2L7.1-32.5z"/>
		<path class="st2" d="M-33-27.1C-33-27.1-33-27.1-33-27.1c1.5,3.2,5.1,4.6,8.2,3.3l2,0.8l-2.5-6.5l-3.1-4.5L-33-27.1z"/>
		<path class="st1" d="M-35-31.2l1,2.2l0.9,2c0,0,0,0,0,0c0.1,0,0.2,0,0.3-0.1c1.1-0.3,2.3-0.3,3.4-0.6c1-0.3,2.7-0.9,4-1.8
			l-1.9-5.1l-1.2-3.3l-3.7,0.7C-34.8-36.7-36.2-33.7-35-31.2z"/>
		<path class="st0" d="M-41.5-67.9c-0.9,2.5-9.4,0.3-11.4-0.1c-4.7-1.1-8.3-0.6-10.5,3.4c-1.3,2.3-2,5-2.5,7.5
			c-0.5,2.6-2.2,8.2,1.6,9.7c4,1.6,6.7-4.3,7.8-6.6c1.2-2.7,2-5.3,4.5-7.5c0.9-0.8,2.2-1.9,3.6-2.1c1.3-0.1,1.7,0.4,2.9,0.8
			c3.7,1.1,4.1-1.6,4.1-4.1c-0.2-0.2,0,0.1,0,0.2 M-9.5-39.5c0.6-1.8,5.8-6.9,6.9-4.4c0.2,0.4,0,0.9,0,0.9s-2.7,0.6-3.6,1
			c-1.7,0.8-1.6,1.1-3.1,2.3C-9.3-39.8-9.6-39.5-9.5-39.5z"/>
		<path class="st0" d="M-6.3-42.2c-0.4,1.5,2.1,2.8,2.9,1.1c0.9-1.9-1.2-2.8-2.4-1.5C-6-42.5-6.5-41.9-6.3-42.2L-6.3-42.2z
			 M-1.5-47.5c-0.2-0.8-0.2-1.3-0.6-1.8c-0.6-0.8-1.2-0.5-2.1,0c-1.7,0.9-3,1.7-4.8,2.2c-1.6,0.5-3.3,0.6-4.1,2.3
			c-0.5,1.2-1.8,4.2-1.2,5.4c1-0.6,1.6-2.3,2.4-3.3c0.9-1.2,2.1-1.4,3.4-2.1c2.4-1.3,4.5-2.6,7.2-2C-1.4-47-1.4-47-1.5-47.5z"/>
		<path class="st1" d="M-59.2,42l25.3,54.4l26.2,38.4c5.5,8.1,13.7,13.7,22.9,15.8l2.9,0.7c2.1,0.5,4.2-1,4.5-3.3l2.7-18.1
			c1.6-10.8,6.2-20.8,13.1-29l1.5-1.7c7.2-8.4,16.6-14.3,27.1-17l14.5-3.9l-2.2-4.7c-1-2-2.9-3.4-5-3.7l-7.2-0.8
			c-2.4-0.3-4.5-2-5.3-4.4l-0.7-2.1c-0.7-2.1-2.4-3.7-4.5-4.3l-4-1c-2.2-0.6-4-2.3-4.6-4.6L36.2,11.2L-59.2,42z"/>
		<path class="st0" d="M164.8,258.8l50.2-14l-28.3-88.2l-7.5-47c-0.9-5.5-5-9.8-10.2-10.7l-22.8-3.9l-9.6,46.7l9,7.4l2.6,35.2
			L164.8,258.8z"/>
		<ellipse class="st1" cx="197.4" cy="264.4" rx="7.3" ry="7.7"/>
		<path class="st1" d="M245.7,279.4c0,0.5-0.3,0.9-0.8,0.9c-1.2,0.2-3.6,0.5-4.5,0.5c-18.2,0-69.2,0-76.5,0c-0.5,0-0.9-0.4-0.9-0.9
			v-4.5h82.8L245.7,279.4z"/>
		<path class="st0" d="M166,259.1l-1.1,3.9c-1.3,4.5-2,9.3-2.1,14c-0.1,4.8,75,0,76.6,0c2.1,0,4.3-0.3,6.3-0.9v-2.2
			c0-3-2.1-5.5-4.8-5.9c-3.4-0.5-7.6-1.2-9.6-1.8c-5.7-1.7-16.8-6.1-21.9-9.1c-2.8-1.7-10.2-8.2-10.2-8.2c-0.7-0.6-1.7-0.5-2.4,0.2
			l-0.3,0.3c-1.4,1.5-2.5,3.3-3.2,5.3l-0.5,1.4c-0.3,0.8,0,1.7,0.6,2.2l8.6,6.4c0.4,0.3,0.4,0.8,0.2,1.1c-0.2,0.3-0.6,0.4-0.9,0.3
			c-3.8-1.4-8.6-3.1-10.9-3.8c-3.6-1.1-10.9-2.9-14.5-3.6c-1.9-0.4-7.9-1-7.9-1C167.1,257.7,166.3,258.2,166,259.1L166,259.1z"/>
		<path class="st1" d="M-68.4,27.3l-12.9,35.3l-9.7,29.8l1.3,21.7l13.5,3.1l9-9.3c4.7-4.8,8-10.8,9.8-17.4l12.9-48.9L-68.4,27.3z
			 M30.9,23.9l22.4,8c2.7,1,5.4,1.6,8.3,1.8l25.7,2.1c6.3,0.5,11.9-4.3,12.7-10.9l1.9-16.6L87.6,9L66.1-0.4
			c-1.1-0.5-2.3-0.9-3.5-1.2L30.2-10L30.9,23.9z"/>
		<g>
			<path class="st0" d="M-13.6,3.9l-19.5-6.7l-1.1-0.4l-18,14.9l23.2-2l31.1,6.8l-1-1.4C-2.6,9.8-7.7,5.9-13.6,3.9L-13.6,3.9z
				 M117.7,162.7h-130c-1.5,0-2.9-1-3.4-2.5L-60.4,31.6c-0.7-2,0.3-4.2,2.2-4.9c1.9-0.7,4,0.3,4.7,2.3l0,0l43.8,126h127.4
				c2,0,3.6,1.8,3.6,3.9C121.2,161,119.6,162.7,117.7,162.7L117.7,162.7z"/>
			<path class="st0" d="M-47.4,273.1c-0.4,0-0.8-0.1-1.2-0.2c-1.9-0.7-2.9-2.9-2.3-4.9c0,0,0,0,0,0l35.4-111c0.7-2,2.7-3.1,4.6-2.4
				c1.9,0.7,2.9,2.8,2.3,4.8l-35.4,111C-44.4,272.1-45.8,273.1-47.4,273.1L-47.4,273.1z M2.1,16.5L6.9,2.2v-12.3L-0.4-10L1.8,3.2
				L2.1,16.5z M7.5,45.7c-0.3,0-0.5-0.2-0.6-0.4l-2.3-5.8c-0.5-1.2-0.8-2.5-0.9-3.9L3.1,28C3,26,2.4,24.2,1.4,22.6l-6.1-9.4
				c-0.2-0.3-0.1-0.7,0.2-0.9c0.3-0.2,0.7-0.1,0.9,0.2l6.1,9.4c1.1,1.8,1.8,3.8,2,6L5,35.5c0.1,1.2,0.4,2.3,0.8,3.4l2.3,5.8
				c0.1,0.3,0,0.7-0.3,0.9C7.7,45.7,7.6,45.7,7.5,45.7z"/>
			<path class="st0" d="M14.7,50L14.7,50c-0.4,0-0.7-0.3-0.6-0.7l0.5-16c0.1-1.8-0.3-3.6-1-5.2L3.7,6.5c-0.2-0.3,0-0.7,0.3-0.9
				c0.3-0.2,0.7,0,0.9,0.3l9.9,21.6c0.8,1.8,1.2,3.8,1.2,5.8l-0.5,16C15.4,49.7,15.1,50,14.7,50z"/>
		</g>
		<path class="st2" d="M96.4-60.4l5.9,11.4c0.7,1.4,1,2.9,0.9,4.5l-0.4,4.8c-0.1,1.1-0.4,2.2-0.9,3.2l-1.2,2.7L101,2L78.7,0.6l6-38
			l-4.3-19L96.4-60.4z"/>
		<path class="st1" d="M52.3-66.1l15.5,17.4l34.8-42.9L52.3-66.1z M79.3-61.3c0.9-1,2.2-2.7,3.8-2.6c2.6,0.1,5.7,2.7,7.6,3.7
			c2.5,1.4,6.3,0.5,7.6,3.1c1.7,3.3,4.1,7.1,4.7,10.2c0.3,1.5-1.7,4.7-2.5,6.1c-0.9,1.6-2.1,1.4-3.6,1.7c-2.2,0.4-3,0-4.4-1.9
			c-2.2-2.8-3.8-4.8-6.3-7.4C83.4-51.5,79.6-57.2,79.3-61.3z"/>
		<path class="st2" d="M78.5-73.9l0.4,0.3c0.8,0.6,1.4,1.6,1.7,2.6l1.2,5.2l0.9,6.6l3.9,2.9c1.8,1.4,3.4,3.1,4.6,5.1l0.4,0.6
			c1.8,2.9,2.8,6.3,2.9,9.7l-0.3,5.4l-8.9,0.6l-1.1-3.5L75.2-48c-1-1-1.6-2.4-1.6-3.9l-0.1-3.8l3.2-4.1l-0.8-5.9
			c0,0-0.3-3.1-0.3-3.8c0-0.5-0.4-2.8-0.7-4.1c-0.1-0.5,0.2-1,0.7-1.1c0,0,0,0,0,0C76.6-74.9,77.7-74.6,78.5-73.9z M38.3-59.3
			l13.6-10.2c0,0,53-25.3,52.9-24.8c-0.1,0.5,0.3,1.8-0.2,2c-0.5,0.2-51.2,26.5-51.2,26.5L38.3-59.3z"/>
		<path class="st2" d="M89.8-62.4c0.1,2.1,2.1,4,1.3,7.2c-0.9,3.1-4.5-1.5-5-3.1c-0.3-1-1.1-3.9-1.6-4.7c-0.5-0.8-2.5-0.5-3.4-0.9
			c0.6-3,1.7-6.5,5.4-4.7C88.8-67.1,89.7-65.4,89.8-62.4L89.8-62.4z"/>
		<path class="st2" d="M87-67.8c1-0.6,2.7,0.8,3.7,1.3c1.6,0.9,2.5,1.2,2.8,3.1c0.5,3,1.1,6,2,9c0.5,1.6,0.5,2.9-1.6,2.6
			c-1.4-0.2-2.7-1.6-3.3-2.9c-1.2-2.6-0.6-5.4-2.4-7.6c-0.6-0.7-2.5-1.7-2.7-2.6C85.4-66.1,86.4-67.4,87-67.8z"/>
		<path class="st2" d="M92.7-63.9c3.3-1,4.7,0.6,5.3,4.1c0.3,1.6,0.6,3.1,0.9,4.7c0.3,1.1,1.5,3.8,0.2,3.7c-2.1-0.1-3.9-2-4.5-4.4
			C93.9-59,91.4-62.5,92.7-63.9z"/>
		<path class="st1" d="M69.7,9.5c0.8-1.6,2.3-3.8,3.9-5.9C74,3,74.5,2.9,74.9,2.2c0.3-0.5,0.2-2.3,0.5-2.8c0.7-1,1.3-0.2,1.9-1.2
			c1.4-2.5,0.7-5.1,2.4-7.7c9.4,4,17.7,4.8,27,6.2c-2.2,9.5-4.6,21.5-7.5,30.6C93,25.3,66,17.5,69.7,9.5L69.7,9.5z"/>
		<path class="st2" d="M94.3-43.5l0,0.4c0.2,2.3,2.1,4,4.3,3.8l1.2-0.1L96-34.4l-5.9-4.4L94.3-43.5z"/>
		<path class="st1" d="M81.8-72.8l-0.5,4.9l0.4,2l3.9-4.7L81.8-72.8z"/>
		<path class="st0" d="M122.3,194.3c0,0-4.6-4.3-3.9-4.6c0.8-0.3,1.8-20,1.8-20l16.2-13.8l13.1-2.7l28-17.2l-4.6,20.1l-44.3,37.4
			L122.3,194.3z"/>
		<path class="st0" d="M174,44.9l-8.4,63.7l0.6,40l-33.8,16.1c-4.1,1.9-7.8,4.6-10.9,8l-6.2,6.5l9-87.5l21.9-45.4L174,44.9z"/>
		<path class="st0" d="M180.1,142.5c1.8,4.4,1.3,9.3-1.1,13.3l-5.3,8.6c-3.5,5.7-8.6,10.2-14.6,12.8l-16.5,7.4
			c-0.3,0.1-0.5,0.3-0.8,0.4l-17.3,10c-4.5,2.6-10.1,0.8-12.6-3.9c-0.5-0.9-0.8-1.9-1-2.9l-0.1-0.7c-1.1-6.4,1.9-12.8,7.5-15.6
			l11.8-6.2c1.1-0.6,2-1.3,2.8-2.3l12.5-14.9c5.2-6.2,12.5-10.2,20.3-11.2l4.8-0.6C174.6,136.1,178.5,138.5,180.1,142.5z"/>
		<path class="st1" d="M182.1,143.3c1.8,4.4,1.3,9.3-1.1,13.3l-5.3,8.6c-3.5,5.7-8.6,10.2-14.6,12.8l-16.5,7.4
			c-0.3,0.1-0.5,0.3-0.8,0.4l-17.3,10c-4.5,2.6-10.1,0.8-12.6-3.9c-0.5-0.9-0.8-1.9-1-2.9l-0.1-0.7c-1.1-6.4,1.9-12.8,7.5-15.6
			l11.8-6.2c1.1-0.6,2-1.3,2.8-2.3l12.5-14.9c5.2-6.2,12.5-10.2,20.3-11.2l4.8-0.6C176.6,136.9,180.5,139.3,182.1,143.3L182.1,143.3
			z"/>
		<path class="st2" d="M-40.5,41.8c-2.4,0.1-6.1-2-8.5-0.6c-4.8,2.6,0.6,4.9,4,5.8c1.2,0.3,2.4-0.4,2.7-1.6c0,0,0,0,0,0
			C-42.1,44-42.1,43.2-40.5,41.8L-40.5,41.8z"/>
		<path class="st0" d="M-42.9,30c1.2,0.8,16.5,3.7,14.3,8.7c-1.6,3.6-13.8-1.8-16.3-1.4C-44.4,35.4-44.9,30.4-42.9,30z"/>
		<ellipse transform="matrix(0.8147 -0.5798 0.5798 0.8147 -23.6926 17.0004)" class="st0" cx="14.8" cy="45.6" rx="1.1" ry="1.4"/>
		<ellipse transform="matrix(0.3351 -0.9422 0.9422 0.3351 -35.7188 34.4636)" class="st0" cx="6.6" cy="42.5" rx="1.4" ry="1.1"/>
		<path class="st0" d="M-51.6-6.6l17.4,3.4l3.4,3.6L-49,11.5l-7.9,2.9L-51.6-6.6z M-38.1,38.5c-2.5-1.2-7.2-1-9.6-0.1
			c-3.5,1.4-7.2,2.6-10.9,3.5c1.2-5.4,6.4-8.4,10-11.7c2.7-2.4,3-1.9,5.7,0c2,1.4,4,2.1,6.2,3.1C-37.3,34.7-38.4,39-38.1,38.5
			L-38.1,38.5z"/>
		<path class="st2" d="M-86.7,62.8c1.2-1.8,3.7-3.5,5.7-6.6c0.2-0.4-0.4-1.7-0.1-2.1c6.9-10.6,16.6-25.5,19.3-29.2
			c5.4-7.4,9.5-8.5,14.8-6.4c4.4,1.7,7.1,1.7,8.4,3.2c2.4,2.8,2.9,2.9,5.4,7.1c0.6,0.9,0.7,2,0.5,3.1c-0.7,3.3-1.8,7.2-2.4,9.2
			c-0.3,0.9-0.8,1.7-1.6,2.2c-1.5,1-4.2,2.7-7.4,3.9c-1,0.4-2.1-0.9-3.2-1.2c1.4-4.1,0.9-5.2,1.8-9.4c-0.9-0.4-4.3-1.2-5.2-1.2
			c-6.4,12-7.5,28.6-12.1,41.7C-70.5,73.4-80.9,65.1-86.7,62.8z"/>
		<path class="st1" d="M-81.1,54.1C-77,62.4-60.8,67.5-55,68.3c-2.8,12.5-11,59.7-34.3,48.6C-116.8,103.7-87.2,61.3-81.1,54.1
			L-81.1,54.1z"/>
	</g>
	<g transform="translate(130.0 764.0) rotate(0.0 119.0 88.5) scale(1.0022825089068383 1.0055789748775694)">
		<path class="st0" d="M-31.2-446.9h-34.6l-3.7-1.4h-6.4c-4.6,0-8.5,3.7-8.9,8.5l-6.5,69.7h21.4l2,1.4h67.6c1.8,0,3.3-1.7,3-3.6
			l-5-25.7l-9.7-35.5C-14.7-442.3-22.4-446.9-31.2-446.9z"/>
		<path class="st1" d="M-97.1-368.7h29.4c1.2,0,2.1-1,2.1-2.3c0,0,0,0,0,0l-0.4-21.6l-4.1-49.8l-2.8,6.7c-1,2.3-3.1,3.8-5.5,3.8
			c-3.3,0-6-2.8-6-6.3l0.1-3.5l-12.6,47.2c-0.6,2.4-1,4.9-1.2,7.4l-1.1,16c-0.1,1.2,0.8,2.3,2,2.4
			C-97.2-368.7-97.2-368.7-97.1-368.7z"/>
		<path class="st0" d="M-25.3-387.2c-0.2,1.5-0.3,3.1-0.3,4.9c0,2.9,2.2,5.2,5,5.2h2.6c1.4,0,2.5-1.5,2.1-2.9
			c-0.4-1.4-0.3-3.3,0-6.1c0.2-2,0.4-4.1,0.3-6.2c-0.6-7.3-3.2-10.9-3.7-11.6l-7.3,6.3c0,0,0,0-0.1-0.1c0.1,0.1,1.3,2,1.7,6.3
			C-25-390.3-25.1-388.8-25.3-387.2z"/>
		<g>
			<path class="st1" d="M-74.9-448.2c9.1-0.3,17.1,6,19.5,15.3l6.6,25.6c1.8,7.1,7.9,12,14.9,12H-5c4.4,0,7.4-4.6,5.8-8.9
				l-11.5-30.9c-3-7.9-10.2-13.1-18.3-13.1H-74.9z"/>
			<path class="st1" d="M-22.7-391.7c-0.2,1.5-0.3,3.1-0.3,4.9c0,2.9,2.2,5.2,5,5.2h2.6c1.4,0,2.5-1.5,2.1-2.9
				c-0.4-1.4-0.3-3.3,0-6.1c0.2-2,0.4-4.1,0.3-6.2c-0.6-7.3-3.2-10.9-3.7-11.6l-7.3,6.3c0,0,0,0-0.1-0.1c0.1,0.1,1.3,2,1.7,6.3
				C-22.4-394.8-22.5-393.3-22.7-391.7L-22.7-391.7z"/>
		</g>
	</g>
	<g transform="translate(385.0 855.0) rotate(0.0 104.0 43.0) scale(1.0255550570218472 1.0343749248274037)">
		<path class="st1" d="M-235.7-466.4h81v2.6h-81V-466.4z"/>
		<path class="st1" d="M-154.8-446.4h-83.1c-0.5,0-0.9-0.4-0.9-0.9v-16.9c0-0.5,0.4-0.9,0.9-0.9h82.6c0.5,0,0.9,0.4,0.9,0.9l0.5,1.8
			v15.1C-153.9-446.8-154.3-446.4-154.8-446.4C-154.8-446.4-154.8-446.4-154.8-446.4z"/>
		<path class="st0" d="M-171.3-458.6c0.8,0,1.6-0.3,2.2,0.1c-0.8-1.1-2-1.8-3.4-1.8c-2.3,0-4.2,2-4.2,4.5c0,1.6,0.8,3,2,3.8
			c-0.5-0.7-0.3-1.7-0.3-2.7C-175-457.1-173.6-458.6-171.3-458.6z"/>
		<path class="st2" d="M-168.2-455.8c0-1-0.3-1.9-0.9-2.7c-0.7-0.4-1.4-0.7-2.2-0.7c-2.3,0-4.2,2-4.2,4.5c0,1,0.3,1.9,0.9,2.7
			c0.7,0.4,1.4,0.7,2.2,0.7C-170.1-451.3-168.2-453.3-168.2-455.8z"/>
		<path class="st0" d="M-234.6-465.1l80.7,2.6v-1.9c0-0.5-0.4-0.9-0.9-0.9c0,0,0,0,0,0L-234.6-465.1z"/>
		<path class="st1" d="M-152.6-465.2h-83.1c-0.5,0-0.9-0.4-0.9-0.9v-15l0.5-1.9c0-0.5,0.4-0.9,0.9-0.9h82.6c0.5,0,0.9,0.4,0.9,0.9
			v16.9C-151.7-465.6-152.1-465.2-152.6-465.2C-152.6-465.2-152.6-465.2-152.6-465.2z"/>
		<path class="st0" d="M-169-477.3c0.8,0,1.6-0.3,2.2,0.1c-0.8-1.1-2-1.8-3.4-1.8c-2.3,0-4.2,2-4.2,4.5c0,1.6,0.8,3,2,3.8
			c-0.5-0.7-0.3-1.7-0.3-2.7C-172.7-475.9-171.4-477.3-169-477.3z"/>
		<path class="st2" d="M-166-474.6c0-1-0.3-1.9-0.9-2.7c-0.7-0.4-1.4-0.7-2.2-0.7c-2.3,0-4.2,2-4.2,4.5c0,1,0.3,1.9,0.9,2.7
			c0.7,0.4,1.4,0.7,2.2,0.7C-167.9-470.1-166-472.1-166-474.6z"/>
	</g>
</g>
</svg>
